<svg xmlns="http://www.w3.org/2000/svg" version="1.1" xmlns:xlink="http://www.w3.org/1999/xlink" xmlns:svgjs="http://svgjs.dev/svgjs" width="1000" height="623" viewBox="0 0 1000 623"><g transform="matrix(1,0,0,1,-0.6060606060606233,0.2597935222672163)"><svg viewBox="0 0 396 247" data-background-color="#0a1627" preserveAspectRatio="xMidYMid meet" height="623" width="1000" xmlns="http://www.w3.org/2000/svg" xmlns:xlink="http://www.w3.org/1999/xlink"><g id="tight-bounds" transform="matrix(1,0,0,1,0.2400000000000091,-0.09999999999999432)"><svg viewBox="0 0 395.52 247.2" height="247.2" width="395.52"><g><svg></svg></g><g><svg viewBox="0 0 395.52 247.2" height="247.2" width="395.52"><g mask="url(#f6d5325a-3b1b-4ec0-a688-cc7fa1067989)"><g><path xmlns="http://www.w3.org/2000/svg" d="M178.071 247.203l-14.514-32.025c5.45-3.29 10.111-6.757 13.981-10.401 3.902-3.612 7.111-7.595 9.627-11.949 2.548-4.386 4.402-9.272 5.564-14.659 1.193-5.386 1.79-11.514 1.79-18.383v0-159.789h37.444v153.065c0 8.192-0.355 15.658-1.065 22.398-0.71 6.741-1.871 12.917-3.483 18.529-1.613 5.644-3.79 10.82-6.531 15.529-2.709 4.741-6.047 9.224-10.014 13.448-3.967 4.257-8.659 8.353-14.078 12.288-5.386 3.935-11.627 7.918-18.721 11.949z" fill="#fe0039" fill-rule="nonzero" stroke="none" stroke-width="1" stroke-linecap="butt" stroke-linejoin="miter" stroke-miterlimit="10" stroke-dasharray="" stroke-dashoffset="0" font-family="none" font-weight="none" font-size="none" text-anchor="none" style="mix-blend-mode: normal" data-fill-palette-color="tertiary"></path></g></g><g transform="matrix(1,0,0,1,0,69.37331805566166)"><svg viewBox="0 0 395.52 108.45336388867669" height="108.45336388867669" width="395.52"><g><svg viewBox="0 0 395.52 108.45336388867669" height="108.45336388867669" width="395.52"><g><svg viewBox="0 0 395.52 108.45336388867669" height="108.45336388867669" width="395.52"><g><svg viewBox="0 0 395.52 108.45336388867669" height="108.45336388867669" width="395.52"><g id="textblocktransform"><svg viewBox="0 0 395.52 108.45336388867669" height="108.45336388867669" width="395.52" id="textblock"><g><svg viewBox="0 0 395.52 108.45336388867669" height="108.45336388867669" width="395.52"><g transform="matrix(1,0,0,1,0,0)"><svg width="395.52" viewBox="-8.430000066757202 -44.65999984741211 231.09999084472656 64.0999984741211" height="108.45336388867669" data-palette-color="#fe0039"><path d="M1.07 12.94L-1.93 6.32Q-0.24 5.3 0.96 4.17 2.17 3.05 2.95 1.7 3.74 0.34 4.1-1.33 4.47-3 4.47-5.13L4.47-5.13 4.47-38.16 12.21-38.16 12.21-6.52Q12.21-3.98 11.99-1.89 11.77 0.2 11.27 1.94 10.77 3.69 9.92 5.15 9.08 6.62 7.85 7.93 6.62 9.25 4.94 10.47 3.27 11.69 1.07 12.94L1.07 12.94ZM19.82-14.5L19.82-14.5Q19.82-17.43 21.02-20.1 22.21-22.78 24.46-24.83 26.71-26.88 29.97-28.1 33.23-29.32 37.38-29.32L37.38-29.32Q41.5-29.32 44.81-28.09 48.12-26.86 50.42-24.71 52.73-22.56 53.96-19.65 55.2-16.75 55.2-13.43L55.2-13.43Q55.2-13.01 55.19-12.54 55.17-12.06 55.12-11.67L55.12-11.67 27.88-11.67Q28.34-10.38 29.38-9.3 30.42-8.23 31.98-7.45 33.54-6.67 35.59-6.24 37.64-5.81 40.13-5.81L40.13-5.81Q42.62-5.81 45.09-6.34 47.56-6.86 49.8-7.67L49.8-7.67 52.24-2.15Q50.83-1.49 49.37-0.99 47.92-0.49 46.35-0.16 44.77 0.17 43.05 0.34 41.33 0.51 39.43 0.51L39.43 0.51Q34.57 0.51 30.91-0.66 27.24-1.83 24.78-3.86 22.31-5.88 21.07-8.62 19.82-11.35 19.82-14.5ZM27.88-17.31L47.53-17.31Q47.14-18.51 46.32-19.54 45.51-20.58 44.28-21.35 43.06-22.12 41.45-22.56 39.84-23 37.91-23L37.91-23Q35.86-23 34.18-22.53 32.49-22.07 31.22-21.29 29.95-20.51 29.11-19.48 28.27-18.46 27.88-17.31L27.88-17.31ZM61.59-14.5L61.59-14.5Q61.59-17.43 62.79-20.1 63.98-22.78 66.23-24.83 68.48-26.88 71.74-28.1 75-29.32 79.15-29.32L79.15-29.32Q83.27-29.32 86.58-28.09 89.89-26.86 92.19-24.71 94.5-22.56 95.73-19.65 96.97-16.75 96.97-13.43L96.97-13.43Q96.97-13.01 96.96-12.54 96.94-12.06 96.89-11.67L96.89-11.67 69.65-11.67Q70.11-10.38 71.15-9.3 72.19-8.23 73.75-7.45 75.31-6.67 77.36-6.24 79.41-5.81 81.9-5.81L81.9-5.81Q84.39-5.81 86.86-6.34 89.33-6.86 91.57-7.67L91.57-7.67 94.01-2.15Q92.6-1.49 91.14-0.99 89.69-0.49 88.12-0.16 86.54 0.17 84.82 0.34 83.1 0.51 81.2 0.51L81.2 0.51Q76.34 0.51 72.68-0.66 69.01-1.83 66.55-3.86 64.08-5.88 62.84-8.62 61.59-11.35 61.59-14.5ZM69.65-17.31L89.3-17.31Q88.91-18.51 88.09-19.54 87.28-20.58 86.05-21.35 84.83-22.12 83.22-22.56 81.61-23 79.68-23L79.68-23Q77.63-23 75.95-22.53 74.26-22.07 72.99-21.29 71.72-20.51 70.88-19.48 70.04-18.46 69.65-17.31L69.65-17.31ZM114.4 0L100.75-28.83 109.12-28.83 116.62-11.5 118.57-6.64 120.52-11.5 128.02-28.83 136.39-28.83 122.75 0 114.4 0ZM140.08-9.08L140.08-9.08Q140.08-11.16 140.98-12.87 141.88-14.58 143.69-15.81 145.5-17.04 148.2-17.71 150.89-18.38 154.48-18.38L154.48-18.38Q157.14-18.38 160.09-17.99 163.03-17.6 166.15-16.8L166.15-16.8Q166.03-18.16 165.32-19.32 164.61-20.48 163.36-21.33 162.1-22.17 160.33-22.63 158.56-23.1 156.31-23.1L156.31-23.1Q155.09-23.1 153.63-22.95 152.16-22.8 150.6-22.51 149.04-22.22 147.51-21.78 145.99-21.34 144.67-20.73L144.67-20.73 142.47-26.66Q144.11-27.25 145.97-27.73 147.84-28.22 149.79-28.58 151.75-28.93 153.7-29.13 155.65-29.32 157.49-29.32L157.49-29.32Q165.57-29.32 169.5-25.2 173.43-21.07 173.43-12.55L173.43-12.55 173.43 0 166.2 0 166.2-2.71Q165.08-2.05 163.75-1.46 162.42-0.88 160.85-0.44 159.29 0 157.5 0.26 155.7 0.51 153.7 0.51L153.7 0.51Q150.33 0.51 147.78-0.22 145.23-0.95 143.52-2.25 141.81-3.54 140.94-5.29 140.08-7.03 140.08-9.08ZM147.7-9.33L147.7-9.33Q147.7-8.62 148.06-7.97 148.43-7.32 149.23-6.82 150.04-6.32 151.3-6.02 152.55-5.71 154.34-5.71L154.34-5.71Q156.24-5.71 158.02-6.05 159.8-6.4 161.34-6.96 162.88-7.52 164.13-8.25 165.37-8.98 166.2-9.77L166.2-9.77 166.2-11.04Q164.54-11.5 162.92-11.82 161.29-12.13 159.82-12.32 158.34-12.5 157.03-12.57 155.73-12.65 154.75-12.65L154.75-12.65Q152.72-12.65 151.38-12.38 150.04-12.11 149.21-11.66 148.38-11.21 148.04-10.6 147.7-9.99 147.7-9.33ZM182.97 0L182.97-28.81 190.2-28.81 190.2-26.37Q193.08-28 195.7-28.66 198.33-29.32 200.84-29.32L200.84-29.32Q204.14-29.32 206.95-28.36 209.75-27.39 211.8-25.49 213.85-23.58 215.01-20.74 216.17-17.9 216.17-14.16L216.17-14.16 216.17 0 208.97 0 208.97-12.99Q208.97-15.36 208.3-17.22 207.63-19.09 206.37-20.37 205.11-21.66 203.32-22.33 201.53-23 199.3-23L199.3-23Q198.13-23 196.9-22.75 195.67-22.51 194.48-22.06 193.3-21.61 192.2-20.94 191.1-20.26 190.2-19.41L190.2-19.41 190.2 0 182.97 0Z" opacity="1" transform="matrix(1,0,0,1,0,0)" fill="#fe0039" class="undefined-text-0" data-fill-palette-color="primary" id="text-0"></path></svg></g></svg></g></svg></g></svg></g></svg></g></svg></g></svg></g></svg></g><defs><mask id="117e9d44-ff9f-45a7-8c50-a7ec506cf673"><rect width="395.52" height="247.2" fill="white"></rect><g transform="matrix(1,0,0,1,168.24725911741666,37.08)" id="clone"><svg viewBox="0 0 59.02548176516668 173.04" height="173.04" width="59.02548176516668"><g><svg viewBox="0 0 59.02548176516668 173.04" height="173.04" width="59.02548176516668"><g><svg viewBox="0 0 59.02548176516668 173.04" height="173.04" width="59.02548176516668"><g><svg viewBox="0 0 59.02548176516668 173.04" height="173.04" width="59.02548176516668"><g id="SvgjsG1049"><svg viewBox="0 0 59.02548176516668 173.04" height="173.04" width="59.02548176516668" id="SvgjsSvg1048"><g><svg viewBox="0 0 59.02548176516668 173.04" height="173.04" width="59.02548176516668"><g transform="matrix(1,0,0,1,0,0)"><svg width="59.02548176516668" viewBox="-4.930000066757202 -41.15999984741211 20.140000343322754 57.099998474121094" height="173.04" data-palette-color="#fe0039"><path d="M1.07 12.94L-1.93 6.32Q-0.24 5.3 0.96 4.17 2.17 3.05 2.95 1.7 3.74 0.34 4.1-1.33 4.47-3 4.47-5.13L4.47-5.13 4.47-38.16 12.21-38.16 12.21-6.52Q12.21-3.98 11.99-1.89 11.77 0.2 11.27 1.94 10.77 3.69 9.92 5.15 9.08 6.62 7.85 7.93 6.62 9.25 4.94 10.47 3.27 11.69 1.07 12.94L1.07 12.94Z" opacity="1" transform="matrix(1,0,0,1,0,0)" fill="#fe0039" class="undefined-text-0" data-fill-palette-color="primary" id="SvgjsPath1047" stroke-width="5" stroke="black" stroke-linejoin="round"></path></svg></g></svg></g></svg></g></svg></g></svg></g></svg></g></svg></g></mask><mask id="a6de647e-d4f6-493b-9cc5-0a9f77bb9af3"><rect width="395.52" height="247.2" fill="white"></rect><g transform="matrix(1,0,0,1,168.24725911741666,37.08)" id="clone"><svg viewBox="0 0 59.02548176516668 173.04" height="173.04" width="59.02548176516668"><g><svg viewBox="0 0 59.02548176516668 173.04" height="173.04" width="59.02548176516668"><g><svg viewBox="0 0 59.02548176516668 173.04" height="173.04" width="59.02548176516668"><g><svg viewBox="0 0 59.02548176516668 173.04" height="173.04" width="59.02548176516668"><g id="SvgjsG1093"><svg viewBox="0 0 59.02548176516668 173.04" height="173.04" width="59.02548176516668" id="SvgjsSvg1092"><g><svg viewBox="0 0 59.02548176516668 173.04" height="173.04" width="59.02548176516668"><g transform="matrix(1,0,0,1,0,0)"><svg width="59.02548176516668" viewBox="-4.930000066757202 -41.15999984741211 20.140000343322754 57.099998474121094" height="173.04" data-palette-color="#fe0039"><path d="M1.07 12.94L-1.93 6.32Q-0.24 5.3 0.96 4.17 2.17 3.05 2.95 1.7 3.74 0.34 4.1-1.33 4.47-3 4.47-5.13L4.47-5.13 4.47-38.16 12.21-38.16 12.21-6.52Q12.21-3.98 11.99-1.89 11.77 0.2 11.27 1.94 10.77 3.69 9.92 5.15 9.08 6.62 7.85 7.93 6.62 9.25 4.94 10.47 3.27 11.69 1.07 12.94L1.07 12.94Z" opacity="1" transform="matrix(1,0,0,1,0,0)" fill="#fe0039" class="undefined-text-0" data-fill-palette-color="primary" id="SvgjsPath1091" stroke-width="5" stroke="black" stroke-linejoin="round"></path></svg></g></svg></g></svg></g></svg></g></svg></g></svg></g></svg></g></mask><mask id="dd952646-3364-4dc8-a298-059943f98bd8"><rect width="395.52" height="247.2" fill="white"></rect><g transform="matrix(1,0,0,1,168.24725911741666,37.08)" id="clone"><svg viewBox="0 0 59.02548176516668 173.04" height="173.04" width="59.02548176516668"><g><svg viewBox="0 0 59.02548176516668 173.04" height="173.04" width="59.02548176516668"><g><svg viewBox="0 0 59.02548176516668 173.04" height="173.04" width="59.02548176516668"><g><svg viewBox="0 0 59.02548176516668 173.04" height="173.04" width="59.02548176516668"><g id="SvgjsG1197"><svg viewBox="0 0 59.02548176516668 173.04" height="173.04" width="59.02548176516668" id="SvgjsSvg1196"><g><svg viewBox="0 0 59.02548176516668 173.04" height="173.04" width="59.02548176516668"><g transform="matrix(1,0,0,1,0,0)"><svg width="59.02548176516668" viewBox="-4.930000066757202 -41.15999984741211 20.140000343322754 57.099998474121094" height="173.04" data-palette-color="#fe0039"><path d="M1.07 12.94L-1.93 6.32Q-0.24 5.3 0.96 4.17 2.17 3.05 2.95 1.7 3.74 0.34 4.1-1.33 4.47-3 4.47-5.13L4.47-5.13 4.47-38.16 12.21-38.16 12.21-6.52Q12.21-3.98 11.99-1.89 11.77 0.2 11.27 1.94 10.77 3.69 9.92 5.15 9.08 6.62 7.85 7.93 6.62 9.25 4.94 10.47 3.27 11.69 1.07 12.94L1.07 12.94Z" opacity="1" transform="matrix(1,0,0,1,0,0)" fill="#fe0039" class="undefined-text-0" data-fill-palette-color="primary" id="SvgjsPath1195" stroke-width="5" stroke="black" stroke-linejoin="round"></path></svg></g></svg></g></svg></g></svg></g></svg></g></svg></g></svg></g></mask><mask id="0c93398c-aaf2-4f04-93d9-89d3b8ae0b85"><rect width="395.52" height="247.2" fill="white"></rect><g transform="matrix(1,0,0,1,168.24725911741666,37.08)" id="clone"><svg viewBox="0 0 59.02548176516668 173.04" height="173.04" width="59.02548176516668"><g><svg viewBox="0 0 59.02548176516668 173.04" height="173.04" width="59.02548176516668"><g><svg viewBox="0 0 59.02548176516668 173.04" height="173.04" width="59.02548176516668"><g><svg viewBox="0 0 59.02548176516668 173.04" height="173.04" width="59.02548176516668"><g id="SvgjsG1201"><svg viewBox="0 0 59.02548176516668 173.04" height="173.04" width="59.02548176516668" id="SvgjsSvg1200"><g><svg viewBox="0 0 59.02548176516668 173.04" height="173.04" width="59.02548176516668"><g transform="matrix(1,0,0,1,0,0)"><svg width="59.02548176516668" viewBox="-4.930000066757202 -41.15999984741211 20.140000343322754 57.099998474121094" height="173.04" data-palette-color="#fe0039"><path d="M1.07 12.94L-1.93 6.32Q-0.24 5.3 0.96 4.17 2.17 3.05 2.95 1.7 3.74 0.34 4.1-1.33 4.47-3 4.47-5.13L4.47-5.13 4.47-38.16 12.21-38.16 12.21-6.52Q12.21-3.98 11.99-1.89 11.77 0.2 11.27 1.94 10.77 3.69 9.92 5.15 9.08 6.62 7.85 7.93 6.62 9.25 4.94 10.47 3.27 11.69 1.07 12.94L1.07 12.94Z" opacity="1" transform="matrix(1,0,0,1,0,0)" fill="#fe0039" class="undefined-text-0" data-fill-palette-color="primary" id="SvgjsPath1199" stroke-width="5" stroke="black" stroke-linejoin="round"></path></svg></g></svg></g></svg></g></svg></g></svg></g></svg></g></svg></g></mask><mask id="742de10b-6ab4-487b-896b-80f35edc8d36"><rect width="395.52" height="247.2" fill="white"></rect><g transform="matrix(1,0,0,1,168.24725911741666,37.08)" id="clone"><svg viewBox="0 0 59.02548176516668 173.04" height="173.04" width="59.02548176516668"><g><svg viewBox="0 0 59.02548176516668 173.04" height="173.04" width="59.02548176516668"><g><svg viewBox="0 0 59.02548176516668 173.04" height="173.04" width="59.02548176516668"><g><svg viewBox="0 0 59.02548176516668 173.04" height="173.04" width="59.02548176516668"><g id="SvgjsG1205"><svg viewBox="0 0 59.02548176516668 173.04" height="173.04" width="59.02548176516668" id="SvgjsSvg1204"><g><svg viewBox="0 0 59.02548176516668 173.04" height="173.04" width="59.02548176516668"><g transform="matrix(1,0,0,1,0,0)"><svg width="59.02548176516668" viewBox="-4.930000066757202 -41.15999984741211 20.140000343322754 57.099998474121094" height="173.04" data-palette-color="#fe0039"><path d="M1.07 12.94L-1.93 6.32Q-0.24 5.3 0.96 4.17 2.17 3.05 2.95 1.7 3.74 0.34 4.1-1.33 4.47-3 4.47-5.13L4.47-5.13 4.47-38.16 12.21-38.16 12.21-6.52Q12.21-3.98 11.99-1.89 11.77 0.2 11.27 1.94 10.77 3.69 9.92 5.15 9.08 6.62 7.85 7.93 6.62 9.25 4.94 10.47 3.27 11.69 1.07 12.94L1.07 12.94Z" opacity="1" transform="matrix(1,0,0,1,0,0)" fill="#fe0039" class="undefined-text-0" data-fill-palette-color="primary" id="SvgjsPath1203" stroke-width="5" stroke="black" stroke-linejoin="round"></path></svg></g></svg></g></svg></g></svg></g></svg></g></svg></g></svg></g></mask><mask id="1d16f7ac-c60b-4d8d-8861-3ee11564b7a4"><rect width="395.52" height="247.2" fill="white"></rect><g transform="matrix(1,0,0,1,160.36590570198467,37.08)" id="clone"><svg viewBox="0 0 74.78818859603066 173.04" height="173.04" width="74.78818859603066"><g><svg viewBox="0 0 74.78818859603066 173.04" height="173.04" width="74.78818859603066"><g><svg viewBox="0 0 74.78818859603066 173.04" height="173.04" width="74.78818859603066"><g><svg viewBox="0 0 74.78818859603066 173.04" height="173.04" width="74.78818859603066"><g id="SvgjsG1209"><svg viewBox="0 0 74.78818859603066 173.04" height="173.04" width="74.78818859603066" id="SvgjsSvg1208"><g><svg viewBox="0 0 74.78818859603066 173.04" height="173.04" width="74.78818859603066"><g transform="matrix(1,0,0,1,0,0)"><svg width="74.78818859603066" viewBox="-9.430000066757202 -45.65999984741211 29.140000343322754 66.0999984741211" height="173.04" data-palette-color="#fe0039"><path d="M1.07 12.94L-1.93 6.32Q-0.24 5.3 0.96 4.17 2.17 3.05 2.95 1.7 3.74 0.34 4.1-1.33 4.47-3 4.47-5.13L4.47-5.13 4.47-38.16 12.21-38.16 12.21-6.52Q12.21-3.98 11.99-1.89 11.77 0.2 11.27 1.94 10.77 3.69 9.92 5.15 9.08 6.62 7.85 7.93 6.62 9.25 4.94 10.47 3.27 11.69 1.07 12.94L1.07 12.94Z" opacity="1" transform="matrix(1,0,0,1,0,0)" fill="#fe0039" class="undefined-text-0" data-fill-palette-color="primary" id="SvgjsPath1207" stroke-width="14" stroke="black" stroke-linejoin="round"></path></svg></g></svg></g></svg></g></svg></g></svg></g></svg></g></svg></g></mask><mask id="e3e8065c-aa8e-4b18-b25f-4896539fc869"><rect width="395.52" height="247.2" fill="white"></rect><g transform="matrix(1,0,0,1,142.87276503260082,37.08)" id="clone"><svg viewBox="0 0 109.77446993479835 173.04" height="173.04" width="109.77446993479835"><g><svg viewBox="0 0 109.77446993479835 173.04" height="173.04" width="109.77446993479835"><g><svg viewBox="0 0 109.77446993479835 173.04" height="173.04" width="109.77446993479835"><g><svg viewBox="0 0 109.77446993479835 173.04" height="173.04" width="109.77446993479835"><g id="SvgjsG1213"><svg viewBox="0 0 109.77446993479835 173.04" height="173.04" width="109.77446993479835" id="SvgjsSvg1212"><g><svg viewBox="0 0 109.77446993479835 173.04" height="173.04" width="109.77446993479835"><g transform="matrix(1,0,0,1,0,0)"><svg width="109.77446993479835" viewBox="-27.430000066757202 -63.65999984741211 65.14000034332275 102.0999984741211" height="173.04" data-palette-color="#fe0039"><path d="M1.07 12.94L-1.93 6.32Q-0.24 5.3 0.96 4.17 2.17 3.05 2.95 1.7 3.74 0.34 4.1-1.33 4.47-3 4.47-5.13L4.47-5.13 4.47-38.16 12.21-38.16 12.21-6.52Q12.21-3.98 11.99-1.89 11.77 0.2 11.27 1.94 10.77 3.69 9.92 5.15 9.08 6.62 7.85 7.93 6.62 9.25 4.94 10.47 3.27 11.69 1.07 12.94L1.07 12.94Z" opacity="1" transform="matrix(1,0,0,1,0,0)" fill="#fe0039" class="undefined-text-0" data-fill-palette-color="primary" id="SvgjsPath1211" stroke-width="50" stroke="black" stroke-linejoin="round"></path></svg></g></svg></g></svg></g></svg></g></svg></g></svg></g></svg></g></mask><mask id="14564245-02ec-44a6-b1ab-41c036425b71"><rect width="395.52" height="247.2" fill="white"></rect><g transform="matrix(1,0,0,1,172.62413091154474,37.08)" id="clone"><svg viewBox="0 0 50.271738176910524 173.04" height="173.04" width="50.271738176910524"><g><svg viewBox="0 0 50.271738176910524 173.04" height="173.04" width="50.271738176910524"><g><svg viewBox="0 0 50.271738176910524 173.04" height="173.04" width="50.271738176910524"><g><svg viewBox="0 0 50.271738176910524 173.04" height="173.04" width="50.271738176910524"><g id="SvgjsG1217"><svg viewBox="0 0 50.271738176910524 173.04" height="173.04" width="50.271738176910524" id="SvgjsSvg1216"><g><svg viewBox="0 0 50.271738176910524 173.04" height="173.04" width="50.271738176910524"><g transform="matrix(1,0,0,1,0,0)"><svg width="50.271738176910524" viewBox="-2.930000066757202 -39.15999984741211 16.140000343322754 53.099998474121094" height="173.04" data-palette-color="#fe0039"><path d="M1.07 12.94L-1.93 6.32Q-0.24 5.3 0.96 4.17 2.17 3.05 2.95 1.7 3.74 0.34 4.1-1.33 4.47-3 4.47-5.13L4.47-5.13 4.47-38.16 12.21-38.16 12.21-6.52Q12.21-3.98 11.99-1.89 11.77 0.2 11.27 1.94 10.77 3.69 9.92 5.15 9.08 6.62 7.85 7.93 6.62 9.25 4.94 10.47 3.27 11.69 1.07 12.94L1.07 12.94Z" opacity="1" transform="matrix(1,0,0,1,0,0)" fill="#fe0039" class="undefined-text-0" data-fill-palette-color="primary" id="SvgjsPath1215" stroke-width="1" stroke="black" stroke-linejoin="round"></path></svg></g></svg></g></svg></g></svg></g></svg></g></svg></g></svg></g></mask><mask id="767f0bd8-07c1-41f7-830a-531c80c1f1ee"><rect width="395.52" height="247.2" fill="white"></rect><g transform="matrix(1,0,0,1,160.36590570198467,37.08)" id="clone"><svg viewBox="0 0 74.78818859603066 173.04" height="173.04" width="74.78818859603066"><g><svg viewBox="0 0 74.78818859603066 173.04" height="173.04" width="74.78818859603066"><g><svg viewBox="0 0 74.78818859603066 173.04" height="173.04" width="74.78818859603066"><g><svg viewBox="0 0 74.78818859603066 173.04" height="173.04" width="74.78818859603066"><g id="SvgjsG1221"><svg viewBox="0 0 74.78818859603066 173.04" height="173.04" width="74.78818859603066" id="SvgjsSvg1220"><g><svg viewBox="0 0 74.78818859603066 173.04" height="173.04" width="74.78818859603066"><g transform="matrix(1,0,0,1,0,0)"><svg width="74.78818859603066" viewBox="-9.430000066757202 -45.65999984741211 29.140000343322754 66.0999984741211" height="173.04" data-palette-color="#fe0039"><path d="M1.07 12.94L-1.93 6.32Q-0.24 5.3 0.96 4.17 2.17 3.05 2.95 1.7 3.74 0.34 4.1-1.33 4.47-3 4.47-5.13L4.47-5.13 4.47-38.16 12.21-38.16 12.21-6.52Q12.21-3.98 11.99-1.89 11.77 0.2 11.27 1.94 10.77 3.69 9.92 5.15 9.08 6.62 7.85 7.93 6.62 9.25 4.94 10.47 3.27 11.69 1.07 12.94L1.07 12.94Z" opacity="1" transform="matrix(1,0,0,1,0,0)" fill="#fe0039" class="undefined-text-0" data-fill-palette-color="primary" id="SvgjsPath1219" stroke-width="14" stroke="black" stroke-linejoin="round"></path></svg></g></svg></g></svg></g></svg></g></svg></g></svg></g></svg></g></mask><mask id="686351ed-bebf-44b8-99f6-bb0d46625947"><rect width="395.52" height="247.2" fill="white"></rect><g transform="matrix(1,0,0,1,162.73919011149727,37.08)" id="clone"><svg viewBox="0 0 70.04161977700547 173.04" height="173.04" width="70.04161977700547"><g><svg viewBox="0 0 70.04161977700547 173.04" height="173.04" width="70.04161977700547"><g><svg viewBox="0 0 70.04161977700547 173.04" height="173.04" width="70.04161977700547"><g><svg viewBox="0 0 70.04161977700547 173.04" height="173.04" width="70.04161977700547"><g id="SvgjsG1225"><svg viewBox="0 0 70.04161977700547 173.04" height="173.04" width="70.04161977700547" id="SvgjsSvg1224"><g><svg viewBox="0 0 70.04161977700547 173.04" height="173.04" width="70.04161977700547"><g transform="matrix(1,0,0,1,0,0)"><svg width="70.04161977700547" viewBox="-7.930000066757202 -44.15999984741211 26.140000343322754 63.099998474121094" height="173.04" data-palette-color="#fe0039"><path d="M1.07 12.94L-1.93 6.32Q-0.24 5.3 0.96 4.17 2.17 3.05 2.95 1.7 3.74 0.34 4.1-1.33 4.47-3 4.47-5.13L4.47-5.13 4.47-38.16 12.21-38.16 12.21-6.52Q12.21-3.98 11.99-1.89 11.77 0.2 11.27 1.94 10.77 3.69 9.92 5.15 9.08 6.62 7.85 7.93 6.62 9.25 4.94 10.47 3.27 11.69 1.07 12.94L1.07 12.94Z" opacity="1" transform="matrix(1,0,0,1,0,0)" fill="#fe0039" class="undefined-text-0" data-fill-palette-color="primary" id="SvgjsPath1223" stroke-width="11" stroke="black" stroke-linejoin="round"></path></svg></g></svg></g></svg></g></svg></g></svg></g></svg></g></svg></g></mask><mask id="9d31ad48-5b25-4839-9c12-620abe42c8a9"><rect width="395.52" height="247.2" fill="white"></rect><g transform="matrix(1,0,0,1,0,69.99978586103131)" id="clone"><svg viewBox="0 0 395.52 107.20042827793738" height="107.20042827793738" width="395.52"><g><svg viewBox="0 0 395.52 107.20042827793738" height="107.20042827793738" width="395.52"><g><svg viewBox="0 0 395.52 107.20042827793738" height="107.20042827793738" width="395.52"><g><svg viewBox="0 0 395.52 107.20042827793738" height="107.20042827793738" width="395.52"><g id="SvgjsG1229"><svg viewBox="0 0 395.52 107.20042827793738" height="107.20042827793738" width="395.52" id="SvgjsSvg1228"><g><svg viewBox="0 0 395.52 107.20042827793738" height="107.20042827793738" width="395.52"><g transform="matrix(1,0,0,1,0,0)"><svg width="395.52" viewBox="-7.930000066757202 -44.15999984741211 230.09999084472656 63.099998474121094" height="107.20042827793738" data-palette-color="#fe0039"><path d="M1.07 12.94L-1.93 6.32Q-0.24 5.3 0.96 4.17 2.17 3.05 2.95 1.7 3.74 0.34 4.1-1.33 4.47-3 4.47-5.13L4.47-5.13 4.47-38.16 12.21-38.16 12.21-6.52Q12.21-3.98 11.99-1.89 11.77 0.2 11.27 1.94 10.77 3.69 9.92 5.15 9.08 6.62 7.85 7.93 6.62 9.25 4.94 10.47 3.27 11.69 1.07 12.94L1.07 12.94ZM19.82-14.5L19.82-14.5Q19.82-17.43 21.02-20.1 22.21-22.78 24.46-24.83 26.71-26.88 29.97-28.1 33.23-29.32 37.38-29.32L37.38-29.32Q41.5-29.32 44.81-28.09 48.12-26.86 50.42-24.71 52.73-22.56 53.96-19.65 55.2-16.75 55.2-13.43L55.2-13.43Q55.2-13.01 55.19-12.54 55.17-12.06 55.12-11.67L55.12-11.67 27.88-11.67Q28.34-10.38 29.38-9.3 30.42-8.23 31.98-7.45 33.54-6.67 35.59-6.24 37.64-5.81 40.13-5.81L40.13-5.81Q42.62-5.81 45.09-6.34 47.56-6.86 49.8-7.67L49.8-7.67 52.24-2.15Q50.83-1.49 49.37-0.99 47.92-0.49 46.35-0.16 44.77 0.17 43.05 0.34 41.33 0.51 39.43 0.51L39.43 0.51Q34.57 0.51 30.91-0.66 27.24-1.83 24.78-3.86 22.31-5.88 21.07-8.62 19.82-11.35 19.82-14.5ZM27.88-17.31L47.53-17.31Q47.14-18.51 46.32-19.54 45.51-20.58 44.28-21.35 43.06-22.12 41.45-22.56 39.84-23 37.91-23L37.91-23Q35.86-23 34.18-22.53 32.49-22.07 31.22-21.29 29.95-20.51 29.11-19.48 28.27-18.46 27.88-17.31L27.88-17.31ZM61.59-14.5L61.59-14.5Q61.59-17.43 62.79-20.1 63.98-22.78 66.23-24.83 68.48-26.88 71.74-28.1 75-29.32 79.15-29.32L79.15-29.32Q83.27-29.32 86.58-28.09 89.89-26.86 92.19-24.71 94.5-22.56 95.73-19.65 96.97-16.75 96.97-13.43L96.97-13.43Q96.97-13.01 96.96-12.54 96.94-12.06 96.89-11.67L96.89-11.67 69.65-11.67Q70.11-10.38 71.15-9.3 72.19-8.23 73.75-7.45 75.31-6.67 77.36-6.24 79.41-5.81 81.9-5.81L81.9-5.81Q84.39-5.81 86.86-6.34 89.33-6.86 91.57-7.67L91.57-7.67 94.01-2.15Q92.6-1.49 91.14-0.99 89.69-0.49 88.12-0.16 86.54 0.17 84.82 0.34 83.1 0.51 81.2 0.51L81.2 0.51Q76.34 0.51 72.68-0.66 69.01-1.83 66.55-3.86 64.08-5.88 62.84-8.62 61.59-11.35 61.59-14.5ZM69.65-17.31L89.3-17.31Q88.91-18.51 88.09-19.54 87.28-20.58 86.05-21.35 84.83-22.12 83.22-22.56 81.61-23 79.68-23L79.68-23Q77.63-23 75.95-22.53 74.26-22.07 72.99-21.29 71.72-20.51 70.88-19.48 70.04-18.46 69.65-17.31L69.65-17.31ZM114.4 0L100.75-28.83 109.12-28.83 116.62-11.5 118.57-6.64 120.52-11.5 128.02-28.83 136.39-28.83 122.75 0 114.4 0ZM140.08-9.08L140.08-9.08Q140.08-11.16 140.98-12.87 141.88-14.58 143.69-15.81 145.5-17.04 148.2-17.71 150.89-18.38 154.48-18.38L154.48-18.38Q157.14-18.38 160.09-17.99 163.03-17.6 166.15-16.8L166.15-16.8Q166.03-18.16 165.32-19.32 164.61-20.48 163.36-21.33 162.1-22.17 160.33-22.63 158.56-23.1 156.31-23.1L156.31-23.1Q155.09-23.1 153.63-22.95 152.16-22.8 150.6-22.51 149.04-22.22 147.51-21.78 145.99-21.34 144.67-20.73L144.67-20.73 142.47-26.66Q144.11-27.25 145.97-27.73 147.84-28.22 149.79-28.58 151.75-28.93 153.7-29.13 155.65-29.32 157.49-29.32L157.49-29.32Q165.57-29.32 169.5-25.2 173.43-21.07 173.43-12.55L173.43-12.55 173.43 0 166.2 0 166.2-2.71Q165.08-2.05 163.75-1.46 162.42-0.88 160.85-0.44 159.29 0 157.5 0.26 155.7 0.51 153.7 0.51L153.7 0.51Q150.33 0.51 147.78-0.22 145.23-0.95 143.52-2.25 141.81-3.54 140.94-5.29 140.08-7.03 140.08-9.08ZM147.7-9.33L147.7-9.33Q147.7-8.62 148.06-7.97 148.43-7.32 149.23-6.82 150.04-6.32 151.3-6.02 152.55-5.71 154.34-5.71L154.34-5.71Q156.24-5.71 158.02-6.05 159.8-6.4 161.34-6.96 162.88-7.52 164.13-8.25 165.37-8.98 166.2-9.77L166.2-9.77 166.2-11.04Q164.54-11.5 162.92-11.82 161.29-12.13 159.82-12.32 158.34-12.5 157.03-12.57 155.73-12.65 154.75-12.65L154.75-12.65Q152.72-12.65 151.38-12.38 150.04-12.11 149.21-11.66 148.38-11.21 148.04-10.6 147.7-9.99 147.7-9.33ZM182.97 0L182.97-28.81 190.2-28.81 190.2-26.37Q193.08-28 195.7-28.66 198.33-29.32 200.84-29.32L200.84-29.32Q204.14-29.32 206.95-28.36 209.75-27.39 211.8-25.49 213.85-23.58 215.01-20.74 216.17-17.9 216.17-14.16L216.17-14.16 216.17 0 208.97 0 208.97-12.99Q208.97-15.36 208.3-17.22 207.63-19.09 206.37-20.37 205.11-21.66 203.32-22.33 201.53-23 199.3-23L199.3-23Q198.13-23 196.9-22.75 195.67-22.51 194.48-22.06 193.3-21.61 192.2-20.94 191.1-20.26 190.2-19.41L190.2-19.41 190.2 0 182.97 0Z" opacity="1" transform="matrix(1,0,0,1,0,0)" fill="#fe0039" class="undefined-text-0" data-fill-palette-color="primary" id="SvgjsPath1227" stroke-width="11" stroke="black" stroke-linejoin="round"></path></svg></g></svg></g></svg></g></svg></g></svg></g></svg></g></svg></g></mask><mask id="d304ac31-5fff-4b72-a932-01c9d7e659e5"><rect width="395.52" height="247.2" fill="white"></rect><g transform="matrix(1,0,0,1,0,56.33077510706431)" id="clone"><svg viewBox="0 0 395.52 134.53844978587136" height="134.53844978587136" width="395.52"><g><svg viewBox="0 0 395.52 134.53844978587136" height="134.53844978587136" width="395.52"><g><svg viewBox="0 0 395.52 134.53844978587136" height="134.53844978587136" width="395.52"><g><svg viewBox="0 0 395.52 134.53844978587136" height="134.53844978587136" width="395.52"><g id="SvgjsG1233"><svg viewBox="0 0 395.52 134.53844978587136" height="134.53844978587136" width="395.52" id="SvgjsSvg1232"><g><svg viewBox="0 0 395.52 134.53844978587136" height="134.53844978587136" width="395.52"><g transform="matrix(1,0,0,1,0,0)"><svg width="395.52" viewBox="-19.930000066757202 -56.15999984741211 254.09999084472656 87.0999984741211" height="134.53844978587136" data-palette-color="#fe0039"><path d="M1.07 12.94L-1.93 6.32Q-0.24 5.3 0.96 4.17 2.17 3.05 2.95 1.7 3.74 0.34 4.1-1.33 4.47-3 4.47-5.13L4.47-5.13 4.47-38.16 12.21-38.16 12.21-6.52Q12.21-3.98 11.99-1.89 11.77 0.2 11.27 1.94 10.77 3.69 9.92 5.15 9.08 6.62 7.85 7.93 6.62 9.25 4.94 10.47 3.27 11.69 1.07 12.94L1.07 12.94ZM19.82-14.5L19.82-14.5Q19.82-17.43 21.02-20.1 22.21-22.78 24.46-24.83 26.71-26.88 29.97-28.1 33.23-29.32 37.38-29.32L37.38-29.32Q41.5-29.32 44.81-28.09 48.12-26.86 50.42-24.71 52.73-22.56 53.96-19.65 55.2-16.75 55.2-13.43L55.2-13.43Q55.2-13.01 55.19-12.54 55.17-12.06 55.12-11.67L55.12-11.67 27.88-11.67Q28.34-10.38 29.38-9.3 30.42-8.23 31.98-7.45 33.54-6.67 35.59-6.24 37.64-5.81 40.13-5.81L40.13-5.81Q42.62-5.81 45.09-6.34 47.56-6.86 49.8-7.67L49.8-7.67 52.24-2.15Q50.83-1.49 49.37-0.99 47.92-0.49 46.35-0.16 44.77 0.17 43.05 0.34 41.33 0.51 39.43 0.51L39.43 0.51Q34.57 0.51 30.91-0.66 27.24-1.83 24.78-3.86 22.31-5.88 21.07-8.62 19.82-11.35 19.82-14.5ZM27.88-17.31L47.53-17.31Q47.14-18.51 46.32-19.54 45.51-20.58 44.28-21.35 43.06-22.12 41.45-22.56 39.84-23 37.91-23L37.91-23Q35.86-23 34.18-22.53 32.49-22.07 31.22-21.29 29.95-20.51 29.11-19.48 28.27-18.46 27.88-17.31L27.88-17.31ZM61.59-14.5L61.59-14.5Q61.59-17.43 62.79-20.1 63.98-22.78 66.23-24.83 68.48-26.88 71.74-28.1 75-29.32 79.15-29.32L79.15-29.32Q83.27-29.32 86.58-28.09 89.89-26.86 92.19-24.71 94.5-22.56 95.73-19.65 96.97-16.75 96.97-13.43L96.97-13.43Q96.97-13.01 96.96-12.54 96.94-12.06 96.89-11.67L96.89-11.67 69.65-11.67Q70.11-10.38 71.15-9.3 72.19-8.23 73.75-7.45 75.31-6.67 77.36-6.24 79.41-5.81 81.9-5.81L81.9-5.81Q84.39-5.81 86.86-6.34 89.33-6.86 91.57-7.67L91.57-7.67 94.01-2.15Q92.6-1.49 91.14-0.99 89.69-0.49 88.12-0.16 86.54 0.17 84.82 0.34 83.1 0.51 81.2 0.51L81.2 0.51Q76.34 0.51 72.68-0.66 69.01-1.83 66.55-3.86 64.08-5.88 62.84-8.62 61.59-11.35 61.59-14.5ZM69.65-17.31L89.3-17.31Q88.91-18.51 88.09-19.54 87.28-20.58 86.05-21.35 84.83-22.12 83.22-22.56 81.61-23 79.68-23L79.68-23Q77.63-23 75.95-22.53 74.26-22.07 72.99-21.29 71.72-20.51 70.88-19.48 70.04-18.46 69.65-17.31L69.65-17.31ZM114.4 0L100.75-28.83 109.12-28.83 116.62-11.5 118.57-6.64 120.52-11.5 128.02-28.83 136.39-28.83 122.75 0 114.4 0ZM140.08-9.08L140.08-9.08Q140.08-11.16 140.98-12.87 141.88-14.58 143.69-15.81 145.5-17.04 148.2-17.71 150.89-18.38 154.48-18.38L154.48-18.38Q157.14-18.38 160.09-17.99 163.03-17.6 166.15-16.8L166.15-16.8Q166.03-18.16 165.32-19.32 164.61-20.48 163.36-21.33 162.1-22.17 160.33-22.63 158.56-23.1 156.31-23.1L156.31-23.1Q155.09-23.1 153.63-22.95 152.16-22.8 150.6-22.51 149.04-22.22 147.51-21.78 145.99-21.34 144.67-20.73L144.67-20.73 142.47-26.66Q144.11-27.25 145.97-27.73 147.84-28.22 149.79-28.58 151.75-28.93 153.7-29.13 155.65-29.32 157.49-29.32L157.49-29.32Q165.57-29.32 169.5-25.2 173.43-21.07 173.43-12.55L173.43-12.55 173.43 0 166.2 0 166.2-2.71Q165.08-2.05 163.75-1.46 162.42-0.88 160.85-0.44 159.29 0 157.5 0.26 155.7 0.51 153.7 0.51L153.7 0.51Q150.33 0.51 147.78-0.22 145.23-0.95 143.52-2.25 141.81-3.54 140.94-5.29 140.08-7.03 140.08-9.08ZM147.7-9.33L147.7-9.33Q147.7-8.62 148.06-7.97 148.43-7.32 149.23-6.82 150.04-6.32 151.3-6.02 152.55-5.71 154.34-5.71L154.34-5.71Q156.24-5.71 158.02-6.05 159.8-6.4 161.34-6.96 162.88-7.52 164.13-8.25 165.37-8.98 166.2-9.77L166.2-9.77 166.2-11.04Q164.54-11.5 162.92-11.82 161.29-12.13 159.82-12.32 158.34-12.5 157.03-12.57 155.73-12.65 154.75-12.65L154.75-12.65Q152.72-12.65 151.38-12.38 150.04-12.11 149.21-11.66 148.38-11.21 148.04-10.6 147.7-9.99 147.7-9.33ZM182.97 0L182.97-28.81 190.2-28.81 190.2-26.37Q193.08-28 195.7-28.66 198.33-29.32 200.84-29.32L200.84-29.32Q204.14-29.32 206.95-28.36 209.75-27.39 211.8-25.49 213.85-23.58 215.01-20.74 216.17-17.9 216.17-14.16L216.17-14.16 216.17 0 208.97 0 208.97-12.99Q208.97-15.36 208.3-17.22 207.63-19.09 206.37-20.37 205.11-21.66 203.32-22.33 201.53-23 199.3-23L199.3-23Q198.13-23 196.9-22.75 195.67-22.51 194.48-22.06 193.3-21.61 192.2-20.94 191.1-20.26 190.2-19.41L190.2-19.41 190.2 0 182.97 0Z" opacity="1" transform="matrix(1,0,0,1,0,0)" fill="#fe0039" class="undefined-text-0" data-fill-palette-color="primary" id="SvgjsPath1231" stroke-width="35" stroke="black" stroke-linejoin="round"></path></svg></g></svg></g></svg></g></svg></g></svg></g></svg></g></svg></g></mask><mask id="7fc62c4d-0067-4246-abed-ec2bdb7806e4"><rect width="395.52" height="247.2" fill="white"></rect><g transform="matrix(1,0,0,1,0,71.9124361023054)" id="clone"><svg viewBox="0 0 395.52 103.37512779538916" height="103.37512779538916" width="395.52"><g><svg viewBox="0 0 395.52 103.37512779538916" height="103.37512779538916" width="395.52"><g><svg viewBox="0 0 395.52 103.37512779538916" height="103.37512779538916" width="395.52"><g><svg viewBox="0 0 395.52 103.37512779538916" height="103.37512779538916" width="395.52"><g id="SvgjsG1237"><svg viewBox="0 0 395.52 103.37512779538916" height="103.37512779538916" width="395.52" id="SvgjsSvg1236"><g><svg viewBox="0 0 395.52 103.37512779538916" height="103.37512779538916" width="395.52"><g transform="matrix(1,0,0,1,0,0)"><svg width="395.52" viewBox="-6.430000066757202 -42.65999984741211 227.09999084472656 60.099998474121094" height="103.37512779538916" data-palette-color="#fe0039"><path d="M1.07 12.94L-1.93 6.32Q-0.24 5.3 0.96 4.17 2.17 3.05 2.95 1.7 3.74 0.34 4.1-1.33 4.47-3 4.47-5.13L4.47-5.13 4.47-38.16 12.21-38.16 12.21-6.52Q12.21-3.98 11.99-1.89 11.77 0.2 11.27 1.94 10.77 3.69 9.92 5.15 9.08 6.62 7.85 7.93 6.62 9.25 4.94 10.47 3.27 11.69 1.07 12.94L1.07 12.94ZM19.82-14.5L19.82-14.5Q19.82-17.43 21.02-20.1 22.21-22.78 24.46-24.83 26.71-26.88 29.97-28.1 33.23-29.32 37.38-29.32L37.38-29.32Q41.5-29.32 44.81-28.09 48.12-26.86 50.42-24.71 52.73-22.56 53.96-19.65 55.2-16.75 55.2-13.43L55.2-13.43Q55.2-13.01 55.19-12.54 55.17-12.06 55.12-11.67L55.12-11.67 27.88-11.67Q28.34-10.38 29.38-9.3 30.42-8.23 31.98-7.45 33.54-6.67 35.59-6.24 37.64-5.81 40.13-5.81L40.13-5.81Q42.62-5.81 45.09-6.34 47.56-6.86 49.8-7.67L49.8-7.67 52.24-2.15Q50.83-1.49 49.37-0.99 47.92-0.49 46.35-0.16 44.77 0.17 43.05 0.34 41.33 0.51 39.43 0.51L39.43 0.51Q34.57 0.51 30.91-0.66 27.24-1.83 24.78-3.86 22.31-5.88 21.07-8.62 19.82-11.35 19.82-14.5ZM27.88-17.31L47.53-17.31Q47.14-18.51 46.32-19.54 45.51-20.58 44.28-21.35 43.06-22.12 41.45-22.56 39.84-23 37.91-23L37.91-23Q35.86-23 34.18-22.53 32.49-22.07 31.22-21.29 29.95-20.51 29.11-19.48 28.27-18.46 27.88-17.31L27.88-17.31ZM61.59-14.5L61.59-14.5Q61.59-17.43 62.79-20.1 63.98-22.78 66.23-24.83 68.48-26.88 71.74-28.1 75-29.32 79.15-29.32L79.15-29.32Q83.27-29.32 86.58-28.09 89.89-26.86 92.19-24.71 94.5-22.56 95.73-19.65 96.97-16.75 96.97-13.43L96.97-13.43Q96.97-13.01 96.96-12.54 96.94-12.06 96.89-11.67L96.89-11.67 69.65-11.67Q70.11-10.38 71.15-9.3 72.19-8.23 73.75-7.45 75.31-6.67 77.36-6.24 79.41-5.81 81.9-5.81L81.9-5.81Q84.39-5.81 86.86-6.34 89.33-6.86 91.57-7.67L91.57-7.67 94.01-2.15Q92.6-1.49 91.14-0.99 89.69-0.49 88.12-0.16 86.54 0.17 84.82 0.34 83.1 0.51 81.2 0.51L81.2 0.51Q76.34 0.51 72.68-0.66 69.01-1.83 66.55-3.86 64.08-5.88 62.84-8.62 61.59-11.35 61.59-14.5ZM69.65-17.31L89.3-17.31Q88.91-18.51 88.09-19.54 87.28-20.58 86.05-21.35 84.83-22.12 83.22-22.56 81.61-23 79.68-23L79.68-23Q77.63-23 75.95-22.53 74.26-22.07 72.99-21.29 71.72-20.51 70.88-19.48 70.04-18.46 69.65-17.31L69.65-17.31ZM114.4 0L100.75-28.83 109.12-28.83 116.62-11.5 118.57-6.64 120.52-11.5 128.02-28.83 136.39-28.83 122.75 0 114.4 0ZM140.08-9.08L140.08-9.08Q140.08-11.16 140.98-12.87 141.88-14.58 143.69-15.81 145.5-17.04 148.2-17.71 150.89-18.38 154.48-18.38L154.48-18.38Q157.14-18.38 160.09-17.99 163.03-17.6 166.15-16.8L166.15-16.8Q166.03-18.16 165.32-19.32 164.61-20.48 163.36-21.33 162.1-22.17 160.33-22.63 158.56-23.1 156.31-23.1L156.31-23.1Q155.09-23.1 153.63-22.95 152.16-22.8 150.6-22.51 149.04-22.22 147.51-21.78 145.99-21.34 144.67-20.73L144.67-20.73 142.47-26.66Q144.11-27.25 145.97-27.73 147.84-28.22 149.79-28.58 151.75-28.93 153.7-29.13 155.65-29.32 157.49-29.32L157.49-29.32Q165.57-29.32 169.5-25.2 173.43-21.07 173.43-12.55L173.43-12.55 173.43 0 166.2 0 166.2-2.71Q165.08-2.05 163.75-1.46 162.42-0.88 160.85-0.44 159.29 0 157.5 0.26 155.7 0.51 153.7 0.51L153.7 0.51Q150.33 0.51 147.78-0.22 145.23-0.95 143.52-2.25 141.81-3.54 140.94-5.29 140.08-7.03 140.08-9.08ZM147.7-9.33L147.7-9.33Q147.7-8.62 148.06-7.97 148.43-7.32 149.23-6.82 150.04-6.32 151.3-6.02 152.55-5.71 154.34-5.71L154.34-5.71Q156.24-5.71 158.02-6.05 159.8-6.4 161.34-6.96 162.88-7.52 164.13-8.25 165.37-8.98 166.2-9.77L166.2-9.77 166.2-11.04Q164.54-11.5 162.92-11.82 161.29-12.13 159.82-12.32 158.34-12.5 157.03-12.57 155.73-12.65 154.75-12.65L154.75-12.65Q152.72-12.65 151.38-12.38 150.04-12.11 149.21-11.66 148.38-11.21 148.04-10.6 147.7-9.99 147.7-9.33ZM182.97 0L182.97-28.81 190.2-28.81 190.2-26.37Q193.08-28 195.7-28.66 198.33-29.32 200.84-29.32L200.84-29.32Q204.14-29.32 206.95-28.36 209.75-27.39 211.8-25.49 213.85-23.58 215.01-20.74 216.17-17.9 216.17-14.16L216.17-14.16 216.17 0 208.97 0 208.97-12.99Q208.97-15.36 208.3-17.22 207.63-19.09 206.37-20.37 205.11-21.66 203.32-22.33 201.53-23 199.3-23L199.3-23Q198.13-23 196.9-22.75 195.67-22.51 194.48-22.06 193.3-21.61 192.2-20.94 191.1-20.26 190.2-19.41L190.2-19.41 190.2 0 182.97 0Z" opacity="1" transform="matrix(1,0,0,1,0,0)" fill="#fe0039" class="undefined-text-0" data-fill-palette-color="primary" id="SvgjsPath1235" stroke-width="8" stroke="black" stroke-linejoin="round"></path></svg></g></svg></g></svg></g></svg></g></svg></g></svg></g></svg></g></mask><mask id="78671e44-0f47-46d0-a89d-0ecdd727b11e"><rect width="395.52" height="247.2" fill="white"></rect><g transform="matrix(1,0,0,1,0,69.99978586103131)" id="clone"><svg viewBox="0 0 395.52 107.20042827793738" height="107.20042827793738" width="395.52"><g><svg viewBox="0 0 395.52 107.20042827793738" height="107.20042827793738" width="395.52"><g><svg viewBox="0 0 395.52 107.20042827793738" height="107.20042827793738" width="395.52"><g><svg viewBox="0 0 395.52 107.20042827793738" height="107.20042827793738" width="395.52"><g id="SvgjsG1241"><svg viewBox="0 0 395.52 107.20042827793738" height="107.20042827793738" width="395.52" id="SvgjsSvg1240"><g><svg viewBox="0 0 395.52 107.20042827793738" height="107.20042827793738" width="395.52"><g transform="matrix(1,0,0,1,0,0)"><svg width="395.52" viewBox="-7.930000066757202 -44.15999984741211 230.09999084472656 63.099998474121094" height="107.20042827793738" data-palette-color="#fe0039"><path d="M1.07 12.94L-1.93 6.32Q-0.24 5.3 0.96 4.17 2.17 3.05 2.95 1.7 3.74 0.34 4.1-1.33 4.47-3 4.47-5.13L4.47-5.13 4.47-38.16 12.21-38.16 12.21-6.52Q12.21-3.98 11.99-1.89 11.77 0.2 11.27 1.94 10.77 3.69 9.92 5.15 9.08 6.62 7.85 7.93 6.62 9.25 4.94 10.47 3.27 11.69 1.07 12.94L1.07 12.94ZM19.82-14.5L19.82-14.5Q19.82-17.43 21.02-20.1 22.21-22.78 24.46-24.83 26.71-26.88 29.97-28.1 33.23-29.32 37.38-29.32L37.38-29.32Q41.5-29.32 44.81-28.09 48.12-26.86 50.42-24.71 52.73-22.56 53.96-19.65 55.2-16.75 55.2-13.43L55.2-13.43Q55.2-13.01 55.19-12.54 55.17-12.06 55.12-11.67L55.12-11.67 27.88-11.67Q28.34-10.38 29.38-9.3 30.42-8.23 31.98-7.45 33.54-6.67 35.59-6.24 37.64-5.81 40.13-5.81L40.13-5.81Q42.62-5.81 45.09-6.34 47.56-6.86 49.8-7.67L49.8-7.67 52.24-2.15Q50.83-1.49 49.37-0.99 47.92-0.49 46.35-0.16 44.77 0.17 43.05 0.34 41.33 0.51 39.43 0.51L39.43 0.51Q34.57 0.51 30.91-0.66 27.24-1.83 24.78-3.86 22.31-5.88 21.07-8.62 19.82-11.35 19.82-14.5ZM27.88-17.31L47.53-17.31Q47.14-18.51 46.32-19.54 45.51-20.58 44.28-21.35 43.06-22.12 41.45-22.56 39.84-23 37.91-23L37.91-23Q35.86-23 34.18-22.53 32.49-22.07 31.22-21.29 29.95-20.51 29.11-19.48 28.27-18.46 27.88-17.31L27.88-17.31ZM61.59-14.5L61.59-14.5Q61.59-17.43 62.79-20.1 63.98-22.78 66.23-24.83 68.48-26.88 71.74-28.1 75-29.32 79.15-29.32L79.15-29.32Q83.27-29.32 86.58-28.09 89.89-26.86 92.19-24.71 94.5-22.56 95.73-19.65 96.97-16.75 96.97-13.43L96.97-13.43Q96.97-13.01 96.96-12.54 96.94-12.06 96.89-11.67L96.89-11.67 69.65-11.67Q70.11-10.38 71.15-9.3 72.19-8.23 73.75-7.45 75.31-6.67 77.36-6.24 79.41-5.81 81.9-5.81L81.9-5.81Q84.39-5.81 86.86-6.34 89.33-6.86 91.57-7.67L91.57-7.67 94.01-2.15Q92.6-1.49 91.14-0.99 89.69-0.49 88.12-0.16 86.54 0.17 84.82 0.34 83.1 0.51 81.2 0.51L81.2 0.51Q76.34 0.51 72.68-0.66 69.01-1.83 66.55-3.86 64.08-5.88 62.84-8.62 61.59-11.35 61.59-14.5ZM69.65-17.31L89.3-17.31Q88.91-18.51 88.09-19.54 87.28-20.58 86.05-21.35 84.83-22.12 83.22-22.56 81.61-23 79.68-23L79.68-23Q77.63-23 75.95-22.53 74.26-22.07 72.99-21.29 71.72-20.51 70.88-19.48 70.04-18.46 69.65-17.31L69.65-17.31ZM114.4 0L100.75-28.83 109.12-28.83 116.62-11.5 118.57-6.64 120.52-11.5 128.02-28.83 136.39-28.83 122.75 0 114.4 0ZM140.08-9.08L140.08-9.08Q140.08-11.16 140.98-12.87 141.88-14.58 143.69-15.81 145.5-17.04 148.2-17.71 150.89-18.38 154.48-18.38L154.48-18.38Q157.14-18.38 160.09-17.99 163.03-17.6 166.15-16.8L166.15-16.8Q166.03-18.16 165.32-19.32 164.61-20.48 163.36-21.33 162.1-22.17 160.33-22.63 158.56-23.1 156.31-23.1L156.31-23.1Q155.09-23.1 153.63-22.95 152.16-22.8 150.6-22.51 149.04-22.22 147.51-21.78 145.99-21.34 144.67-20.73L144.67-20.73 142.47-26.66Q144.11-27.25 145.97-27.73 147.84-28.22 149.79-28.58 151.75-28.93 153.7-29.13 155.65-29.32 157.49-29.32L157.49-29.32Q165.57-29.32 169.5-25.2 173.43-21.07 173.43-12.55L173.43-12.55 173.43 0 166.2 0 166.2-2.71Q165.08-2.05 163.75-1.46 162.42-0.88 160.85-0.44 159.29 0 157.5 0.26 155.7 0.51 153.7 0.51L153.7 0.51Q150.33 0.51 147.78-0.22 145.23-0.95 143.52-2.25 141.81-3.54 140.94-5.29 140.08-7.03 140.08-9.08ZM147.7-9.33L147.7-9.33Q147.7-8.62 148.06-7.97 148.43-7.32 149.23-6.82 150.04-6.32 151.3-6.02 152.55-5.71 154.34-5.71L154.34-5.71Q156.24-5.71 158.02-6.05 159.8-6.4 161.34-6.96 162.88-7.52 164.13-8.25 165.37-8.98 166.2-9.77L166.2-9.77 166.2-11.04Q164.54-11.5 162.92-11.82 161.29-12.13 159.82-12.32 158.34-12.5 157.03-12.57 155.73-12.65 154.75-12.65L154.75-12.65Q152.72-12.65 151.38-12.38 150.04-12.11 149.21-11.66 148.38-11.21 148.04-10.6 147.7-9.99 147.7-9.33ZM182.97 0L182.97-28.81 190.2-28.81 190.2-26.37Q193.08-28 195.7-28.66 198.33-29.32 200.84-29.32L200.84-29.32Q204.14-29.32 206.95-28.36 209.75-27.39 211.8-25.49 213.85-23.58 215.01-20.74 216.17-17.9 216.17-14.16L216.17-14.16 216.17 0 208.97 0 208.97-12.99Q208.97-15.36 208.3-17.22 207.63-19.09 206.37-20.37 205.11-21.66 203.32-22.33 201.53-23 199.3-23L199.3-23Q198.13-23 196.9-22.75 195.67-22.51 194.48-22.06 193.3-21.61 192.2-20.94 191.1-20.26 190.2-19.41L190.2-19.41 190.2 0 182.97 0Z" opacity="1" transform="matrix(1,0,0,1,0,0)" fill="#fe0039" class="undefined-text-0" data-fill-palette-color="primary" id="SvgjsPath1239" stroke-width="11" stroke="black" stroke-linejoin="round"></path></svg></g></svg></g></svg></g></svg></g></svg></g></svg></g></svg></g></mask><mask id="f343dc67-e4c6-430b-ad50-bb94c35e91c4"><rect width="395.52" height="247.2" fill="white"></rect><g transform="matrix(1,0,0,1,0,70.63174622201292)" id="clone"><svg viewBox="0 0 395.52 105.93650755597415" height="105.93650755597415" width="395.52"><g><svg viewBox="0 0 395.52 105.93650755597415" height="105.93650755597415" width="395.52"><g><svg viewBox="0 0 395.52 105.93650755597415" height="105.93650755597415" width="395.52"><g><svg viewBox="0 0 395.52 105.93650755597415" height="105.93650755597415" width="395.52"><g id="SvgjsG1245"><svg viewBox="0 0 395.52 105.93650755597415" height="105.93650755597415" width="395.52" id="SvgjsSvg1244"><g><svg viewBox="0 0 395.52 105.93650755597415" height="105.93650755597415" width="395.52"><g transform="matrix(1,0,0,1,0,0)"><svg width="395.52" viewBox="-7.430000066757202 -43.65999984741211 229.09999084472656 62.099998474121094" height="105.93650755597415" data-palette-color="#fe0039"><path d="M1.07 12.94L-1.93 6.32Q-0.24 5.3 0.96 4.17 2.17 3.05 2.95 1.7 3.74 0.34 4.1-1.33 4.47-3 4.47-5.13L4.47-5.13 4.47-38.16 12.21-38.16 12.21-6.52Q12.21-3.98 11.99-1.89 11.77 0.2 11.27 1.94 10.77 3.69 9.92 5.15 9.08 6.62 7.85 7.93 6.62 9.25 4.94 10.47 3.27 11.69 1.07 12.94L1.07 12.94ZM19.82-14.5L19.82-14.5Q19.82-17.43 21.02-20.1 22.21-22.78 24.46-24.83 26.71-26.88 29.97-28.1 33.23-29.32 37.38-29.32L37.38-29.32Q41.5-29.32 44.81-28.09 48.12-26.86 50.42-24.71 52.73-22.56 53.96-19.65 55.2-16.75 55.2-13.43L55.2-13.43Q55.2-13.01 55.19-12.54 55.17-12.06 55.12-11.67L55.12-11.67 27.88-11.67Q28.34-10.38 29.38-9.3 30.42-8.23 31.98-7.45 33.54-6.67 35.59-6.24 37.64-5.81 40.13-5.81L40.13-5.81Q42.62-5.81 45.09-6.34 47.56-6.86 49.8-7.67L49.8-7.67 52.24-2.15Q50.83-1.49 49.37-0.99 47.92-0.49 46.35-0.16 44.77 0.17 43.05 0.34 41.33 0.51 39.43 0.51L39.43 0.51Q34.57 0.51 30.91-0.66 27.24-1.83 24.78-3.86 22.31-5.88 21.07-8.62 19.82-11.35 19.82-14.5ZM27.88-17.31L47.53-17.31Q47.14-18.51 46.32-19.54 45.51-20.58 44.28-21.35 43.06-22.12 41.45-22.56 39.84-23 37.91-23L37.91-23Q35.86-23 34.18-22.53 32.49-22.07 31.22-21.29 29.95-20.51 29.11-19.48 28.27-18.46 27.88-17.31L27.88-17.31ZM61.59-14.5L61.59-14.5Q61.59-17.43 62.79-20.1 63.98-22.78 66.23-24.83 68.48-26.88 71.74-28.1 75-29.32 79.15-29.32L79.15-29.32Q83.27-29.32 86.58-28.09 89.89-26.86 92.19-24.71 94.5-22.56 95.73-19.65 96.97-16.75 96.97-13.43L96.97-13.43Q96.97-13.01 96.96-12.54 96.94-12.06 96.89-11.67L96.89-11.67 69.65-11.67Q70.11-10.38 71.15-9.3 72.19-8.23 73.75-7.45 75.31-6.67 77.36-6.24 79.41-5.81 81.9-5.81L81.9-5.81Q84.39-5.81 86.86-6.34 89.33-6.86 91.57-7.67L91.57-7.67 94.01-2.15Q92.6-1.49 91.14-0.99 89.69-0.49 88.12-0.16 86.54 0.17 84.82 0.34 83.1 0.51 81.2 0.51L81.2 0.51Q76.34 0.51 72.68-0.66 69.01-1.83 66.55-3.86 64.08-5.88 62.84-8.62 61.59-11.35 61.59-14.5ZM69.65-17.31L89.3-17.31Q88.91-18.51 88.09-19.54 87.28-20.58 86.05-21.35 84.83-22.12 83.22-22.56 81.61-23 79.68-23L79.68-23Q77.63-23 75.95-22.53 74.26-22.07 72.99-21.29 71.72-20.51 70.88-19.48 70.04-18.46 69.65-17.31L69.65-17.31ZM114.4 0L100.75-28.83 109.12-28.83 116.62-11.5 118.57-6.64 120.52-11.5 128.02-28.83 136.39-28.83 122.75 0 114.4 0ZM140.08-9.08L140.08-9.08Q140.08-11.16 140.98-12.87 141.88-14.58 143.69-15.81 145.5-17.04 148.2-17.71 150.89-18.38 154.48-18.38L154.48-18.38Q157.14-18.38 160.09-17.99 163.03-17.6 166.15-16.8L166.15-16.8Q166.03-18.16 165.32-19.32 164.61-20.48 163.36-21.33 162.1-22.17 160.33-22.63 158.56-23.1 156.31-23.1L156.31-23.1Q155.09-23.1 153.63-22.95 152.16-22.8 150.6-22.51 149.04-22.22 147.51-21.78 145.99-21.34 144.67-20.73L144.67-20.73 142.47-26.66Q144.11-27.25 145.97-27.73 147.84-28.22 149.79-28.58 151.75-28.93 153.7-29.13 155.65-29.32 157.49-29.32L157.49-29.32Q165.57-29.32 169.5-25.2 173.43-21.07 173.43-12.55L173.43-12.55 173.43 0 166.2 0 166.2-2.71Q165.08-2.05 163.75-1.46 162.42-0.88 160.85-0.44 159.29 0 157.5 0.26 155.7 0.51 153.7 0.51L153.7 0.51Q150.33 0.51 147.78-0.22 145.23-0.95 143.52-2.25 141.81-3.54 140.94-5.29 140.08-7.03 140.08-9.08ZM147.7-9.33L147.7-9.33Q147.7-8.62 148.06-7.97 148.43-7.32 149.23-6.82 150.04-6.32 151.3-6.02 152.55-5.71 154.34-5.71L154.34-5.71Q156.24-5.71 158.02-6.05 159.8-6.4 161.34-6.96 162.88-7.52 164.13-8.25 165.37-8.98 166.2-9.77L166.2-9.77 166.2-11.04Q164.54-11.5 162.92-11.82 161.29-12.13 159.82-12.32 158.34-12.5 157.03-12.57 155.73-12.65 154.75-12.65L154.75-12.65Q152.72-12.65 151.38-12.38 150.04-12.11 149.21-11.66 148.38-11.21 148.04-10.6 147.7-9.99 147.7-9.33ZM182.97 0L182.97-28.81 190.2-28.81 190.2-26.37Q193.08-28 195.7-28.66 198.33-29.32 200.84-29.32L200.84-29.32Q204.14-29.32 206.95-28.36 209.75-27.39 211.8-25.49 213.85-23.58 215.01-20.74 216.17-17.9 216.17-14.16L216.17-14.16 216.17 0 208.97 0 208.97-12.99Q208.97-15.36 208.3-17.22 207.63-19.09 206.37-20.37 205.11-21.66 203.32-22.33 201.53-23 199.3-23L199.3-23Q198.13-23 196.9-22.75 195.67-22.51 194.48-22.06 193.3-21.61 192.2-20.94 191.1-20.26 190.2-19.41L190.2-19.41 190.2 0 182.97 0Z" opacity="1" transform="matrix(1,0,0,1,0,0)" fill="#fe0039" class="undefined-text-0" data-fill-palette-color="primary" id="SvgjsPath1243" stroke-width="10" stroke="black" stroke-linejoin="round"></path></svg></g></svg></g></svg></g></svg></g></svg></g></svg></g></svg></g></mask><mask id="4c908fe2-2ed2-4953-8a35-1f8fb1d40b04"><rect width="395.52" height="247.2" fill="white"></rect><g transform="matrix(1,0,0,1,0,66.92096473591565)" id="clone"><svg viewBox="0 0 395.52 113.35807052816871" height="113.35807052816871" width="395.52"><g><svg viewBox="0 0 395.52 113.35807052816871" height="113.35807052816871" width="395.52"><g><svg viewBox="0 0 395.52 113.35807052816871" height="113.35807052816871" width="395.52"><g><svg viewBox="0 0 395.52 113.35807052816871" height="113.35807052816871" width="395.52"><g id="SvgjsG1249"><svg viewBox="0 0 395.52 113.35807052816871" height="113.35807052816871" width="395.52" id="SvgjsSvg1248"><g><svg viewBox="0 0 395.52 113.35807052816871" height="113.35807052816871" width="395.52"><g transform="matrix(1,0,0,1,0,0)"><svg width="395.52" viewBox="-10.430000066757202 -46.65999984741211 235.09999084472656 68.0999984741211" height="113.35807052816871" data-palette-color="#fe0039"><path d="M1.07 12.94L-1.93 6.32Q-0.24 5.3 0.96 4.17 2.17 3.05 2.95 1.7 3.74 0.34 4.1-1.33 4.47-3 4.47-5.13L4.47-5.13 4.47-38.16 12.21-38.16 12.21-6.52Q12.21-3.98 11.99-1.89 11.77 0.2 11.27 1.94 10.77 3.69 9.92 5.15 9.08 6.62 7.85 7.93 6.62 9.25 4.94 10.47 3.27 11.69 1.07 12.94L1.07 12.94ZM19.82-14.5L19.82-14.5Q19.82-17.43 21.02-20.1 22.21-22.78 24.46-24.83 26.71-26.88 29.97-28.1 33.23-29.32 37.38-29.32L37.38-29.32Q41.5-29.32 44.81-28.09 48.12-26.86 50.42-24.71 52.73-22.56 53.96-19.65 55.2-16.75 55.2-13.43L55.2-13.43Q55.2-13.01 55.19-12.54 55.17-12.06 55.12-11.67L55.12-11.67 27.88-11.67Q28.34-10.38 29.38-9.3 30.42-8.23 31.98-7.45 33.54-6.67 35.59-6.24 37.64-5.81 40.13-5.81L40.13-5.81Q42.62-5.81 45.09-6.34 47.56-6.86 49.8-7.67L49.8-7.67 52.24-2.15Q50.83-1.49 49.37-0.99 47.92-0.49 46.35-0.16 44.77 0.17 43.05 0.34 41.33 0.51 39.43 0.51L39.43 0.51Q34.57 0.51 30.91-0.66 27.24-1.83 24.78-3.86 22.31-5.88 21.07-8.62 19.82-11.35 19.82-14.5ZM27.88-17.31L47.53-17.31Q47.14-18.51 46.32-19.54 45.51-20.58 44.28-21.35 43.06-22.12 41.45-22.56 39.84-23 37.91-23L37.91-23Q35.86-23 34.18-22.53 32.49-22.07 31.22-21.29 29.95-20.51 29.11-19.48 28.27-18.46 27.88-17.31L27.88-17.31ZM61.59-14.5L61.59-14.5Q61.59-17.43 62.79-20.1 63.98-22.78 66.23-24.83 68.48-26.88 71.74-28.1 75-29.32 79.15-29.32L79.15-29.32Q83.27-29.32 86.58-28.09 89.89-26.86 92.19-24.71 94.5-22.56 95.73-19.65 96.97-16.75 96.97-13.43L96.97-13.43Q96.97-13.01 96.96-12.54 96.94-12.06 96.89-11.67L96.89-11.67 69.65-11.67Q70.11-10.38 71.15-9.3 72.19-8.23 73.75-7.45 75.31-6.67 77.36-6.24 79.41-5.81 81.9-5.81L81.9-5.81Q84.39-5.81 86.86-6.34 89.33-6.86 91.57-7.67L91.57-7.67 94.01-2.15Q92.6-1.49 91.14-0.99 89.69-0.49 88.12-0.16 86.54 0.17 84.82 0.34 83.1 0.51 81.2 0.51L81.2 0.51Q76.34 0.51 72.68-0.66 69.01-1.83 66.55-3.86 64.08-5.88 62.84-8.62 61.59-11.35 61.59-14.5ZM69.65-17.31L89.3-17.31Q88.91-18.51 88.09-19.54 87.28-20.58 86.05-21.35 84.83-22.12 83.22-22.56 81.61-23 79.68-23L79.68-23Q77.63-23 75.95-22.53 74.26-22.07 72.99-21.29 71.72-20.51 70.88-19.48 70.04-18.46 69.65-17.31L69.65-17.31ZM114.4 0L100.75-28.83 109.12-28.83 116.62-11.5 118.57-6.64 120.52-11.5 128.02-28.83 136.39-28.83 122.75 0 114.4 0ZM140.08-9.08L140.08-9.08Q140.08-11.16 140.98-12.87 141.88-14.58 143.69-15.81 145.5-17.04 148.2-17.71 150.89-18.38 154.48-18.38L154.48-18.38Q157.14-18.38 160.09-17.99 163.03-17.6 166.15-16.8L166.15-16.8Q166.03-18.16 165.32-19.32 164.61-20.48 163.36-21.33 162.1-22.17 160.33-22.63 158.56-23.1 156.31-23.1L156.31-23.1Q155.09-23.1 153.63-22.95 152.16-22.8 150.6-22.51 149.04-22.22 147.51-21.78 145.99-21.34 144.67-20.73L144.67-20.73 142.47-26.66Q144.11-27.25 145.97-27.73 147.84-28.22 149.79-28.58 151.75-28.93 153.7-29.13 155.65-29.32 157.49-29.32L157.49-29.32Q165.57-29.32 169.5-25.2 173.43-21.07 173.43-12.55L173.43-12.55 173.43 0 166.2 0 166.2-2.71Q165.08-2.05 163.75-1.46 162.42-0.88 160.85-0.44 159.29 0 157.5 0.26 155.7 0.51 153.7 0.51L153.7 0.51Q150.33 0.51 147.78-0.22 145.23-0.95 143.52-2.25 141.81-3.54 140.94-5.29 140.08-7.03 140.08-9.08ZM147.7-9.33L147.7-9.33Q147.7-8.62 148.06-7.97 148.43-7.32 149.23-6.82 150.04-6.32 151.3-6.02 152.55-5.71 154.34-5.71L154.34-5.71Q156.24-5.71 158.02-6.05 159.8-6.4 161.34-6.96 162.88-7.52 164.13-8.25 165.37-8.98 166.2-9.77L166.2-9.77 166.2-11.04Q164.54-11.5 162.92-11.82 161.29-12.13 159.82-12.32 158.34-12.5 157.03-12.57 155.73-12.65 154.75-12.65L154.75-12.65Q152.72-12.65 151.38-12.38 150.04-12.11 149.21-11.66 148.38-11.21 148.04-10.6 147.7-9.99 147.7-9.33ZM182.97 0L182.97-28.81 190.2-28.81 190.2-26.37Q193.08-28 195.7-28.66 198.33-29.32 200.84-29.32L200.84-29.32Q204.14-29.32 206.95-28.36 209.75-27.39 211.8-25.49 213.85-23.58 215.01-20.74 216.17-17.9 216.17-14.16L216.17-14.16 216.17 0 208.97 0 208.97-12.99Q208.97-15.36 208.3-17.22 207.63-19.09 206.37-20.37 205.11-21.66 203.32-22.33 201.53-23 199.3-23L199.3-23Q198.13-23 196.9-22.75 195.67-22.51 194.48-22.06 193.3-21.61 192.2-20.94 191.1-20.26 190.2-19.41L190.2-19.41 190.2 0 182.97 0Z" opacity="1" transform="matrix(1,0,0,1,0,0)" fill="#fe0039" class="undefined-text-0" data-fill-palette-color="primary" id="SvgjsPath1247" stroke-width="16" stroke="black" stroke-linejoin="round"></path></svg></g></svg></g></svg></g></svg></g></svg></g></svg></g></svg></g></mask><mask id="17abd376-4e84-4a94-9d43-864704f47195"><rect width="395.52" height="247.2" fill="white"></rect><g transform="matrix(1,0,0,1,0,69.37331805566166)" id="clone"><svg viewBox="0 0 395.52 108.45336388867669" height="108.45336388867669" width="395.52"><g><svg viewBox="0 0 395.52 108.45336388867669" height="108.45336388867669" width="395.52"><g><svg viewBox="0 0 395.52 108.45336388867669" height="108.45336388867669" width="395.52"><g><svg viewBox="0 0 395.52 108.45336388867669" height="108.45336388867669" width="395.52"><g id="SvgjsG1253"><svg viewBox="0 0 395.52 108.45336388867669" height="108.45336388867669" width="395.52" id="SvgjsSvg1252"><g><svg viewBox="0 0 395.52 108.45336388867669" height="108.45336388867669" width="395.52"><g transform="matrix(1,0,0,1,0,0)"><svg width="395.52" viewBox="-8.430000066757202 -44.65999984741211 231.09999084472656 64.0999984741211" height="108.45336388867669" data-palette-color="#fe0039"><path d="M1.07 12.94L-1.93 6.32Q-0.24 5.3 0.96 4.17 2.17 3.05 2.95 1.7 3.74 0.34 4.1-1.33 4.47-3 4.47-5.13L4.47-5.13 4.47-38.16 12.21-38.16 12.21-6.52Q12.21-3.98 11.99-1.89 11.77 0.2 11.27 1.94 10.77 3.69 9.92 5.15 9.08 6.62 7.85 7.93 6.62 9.25 4.94 10.47 3.27 11.69 1.07 12.94L1.07 12.94ZM19.82-14.5L19.82-14.5Q19.82-17.43 21.02-20.1 22.21-22.78 24.46-24.83 26.71-26.88 29.97-28.1 33.23-29.32 37.38-29.32L37.38-29.32Q41.5-29.32 44.81-28.09 48.12-26.86 50.42-24.71 52.73-22.56 53.96-19.65 55.2-16.75 55.2-13.43L55.2-13.43Q55.2-13.01 55.19-12.54 55.17-12.06 55.12-11.67L55.12-11.67 27.88-11.67Q28.34-10.38 29.38-9.3 30.42-8.23 31.98-7.45 33.54-6.67 35.59-6.24 37.64-5.81 40.13-5.81L40.13-5.81Q42.62-5.81 45.09-6.34 47.56-6.86 49.8-7.67L49.8-7.67 52.24-2.15Q50.83-1.49 49.37-0.99 47.92-0.49 46.35-0.16 44.77 0.17 43.05 0.34 41.33 0.51 39.43 0.51L39.43 0.51Q34.57 0.51 30.91-0.66 27.24-1.83 24.78-3.86 22.31-5.88 21.07-8.62 19.82-11.35 19.82-14.5ZM27.88-17.31L47.53-17.31Q47.14-18.51 46.32-19.54 45.51-20.58 44.28-21.35 43.06-22.12 41.45-22.56 39.84-23 37.91-23L37.91-23Q35.86-23 34.18-22.53 32.49-22.07 31.22-21.29 29.95-20.51 29.11-19.48 28.27-18.46 27.88-17.31L27.88-17.31ZM61.59-14.5L61.59-14.5Q61.59-17.43 62.79-20.1 63.98-22.78 66.23-24.83 68.48-26.88 71.74-28.1 75-29.32 79.15-29.32L79.15-29.32Q83.27-29.32 86.58-28.09 89.89-26.86 92.19-24.71 94.5-22.56 95.73-19.65 96.97-16.75 96.97-13.43L96.97-13.43Q96.97-13.01 96.96-12.54 96.94-12.06 96.89-11.67L96.89-11.67 69.65-11.67Q70.11-10.38 71.15-9.3 72.19-8.23 73.75-7.45 75.31-6.67 77.36-6.24 79.41-5.81 81.9-5.81L81.9-5.81Q84.39-5.81 86.86-6.34 89.33-6.86 91.57-7.67L91.57-7.67 94.01-2.15Q92.6-1.49 91.14-0.99 89.69-0.49 88.12-0.16 86.54 0.17 84.82 0.34 83.1 0.51 81.2 0.51L81.2 0.51Q76.34 0.51 72.68-0.66 69.01-1.83 66.55-3.86 64.08-5.88 62.84-8.62 61.59-11.35 61.59-14.5ZM69.65-17.31L89.3-17.31Q88.91-18.51 88.09-19.54 87.28-20.58 86.05-21.35 84.83-22.12 83.22-22.56 81.61-23 79.68-23L79.68-23Q77.63-23 75.95-22.53 74.26-22.07 72.99-21.29 71.72-20.51 70.88-19.48 70.04-18.46 69.65-17.31L69.65-17.31ZM114.4 0L100.75-28.83 109.12-28.83 116.62-11.5 118.57-6.64 120.52-11.5 128.02-28.83 136.39-28.83 122.75 0 114.4 0ZM140.08-9.08L140.08-9.08Q140.08-11.16 140.98-12.87 141.88-14.58 143.69-15.81 145.5-17.04 148.2-17.71 150.89-18.38 154.48-18.38L154.48-18.38Q157.14-18.38 160.09-17.99 163.03-17.6 166.15-16.8L166.15-16.8Q166.03-18.16 165.32-19.32 164.61-20.48 163.36-21.33 162.1-22.17 160.33-22.63 158.56-23.1 156.31-23.1L156.31-23.1Q155.09-23.1 153.63-22.95 152.16-22.8 150.6-22.51 149.04-22.22 147.51-21.78 145.99-21.34 144.67-20.73L144.67-20.73 142.47-26.66Q144.11-27.25 145.97-27.73 147.84-28.22 149.79-28.58 151.75-28.93 153.7-29.13 155.65-29.32 157.49-29.32L157.49-29.32Q165.57-29.32 169.5-25.2 173.43-21.07 173.43-12.55L173.43-12.55 173.43 0 166.2 0 166.2-2.71Q165.08-2.05 163.75-1.46 162.42-0.88 160.85-0.44 159.29 0 157.5 0.26 155.7 0.51 153.7 0.51L153.7 0.51Q150.33 0.51 147.78-0.22 145.23-0.95 143.52-2.25 141.81-3.54 140.94-5.29 140.08-7.03 140.08-9.08ZM147.7-9.33L147.7-9.33Q147.7-8.62 148.06-7.97 148.43-7.32 149.23-6.82 150.04-6.32 151.3-6.02 152.55-5.71 154.34-5.71L154.34-5.71Q156.24-5.71 158.02-6.05 159.8-6.4 161.34-6.96 162.88-7.52 164.13-8.25 165.37-8.98 166.2-9.77L166.2-9.77 166.2-11.04Q164.54-11.5 162.92-11.82 161.29-12.13 159.82-12.32 158.34-12.5 157.03-12.57 155.73-12.65 154.75-12.65L154.75-12.65Q152.72-12.65 151.38-12.38 150.04-12.11 149.21-11.66 148.38-11.21 148.04-10.6 147.7-9.99 147.7-9.33ZM182.97 0L182.97-28.81 190.2-28.81 190.2-26.37Q193.08-28 195.7-28.66 198.33-29.32 200.84-29.32L200.84-29.32Q204.14-29.32 206.95-28.36 209.75-27.39 211.8-25.49 213.85-23.58 215.01-20.74 216.17-17.9 216.17-14.16L216.17-14.16 216.17 0 208.97 0 208.97-12.99Q208.97-15.36 208.3-17.22 207.63-19.09 206.37-20.37 205.11-21.66 203.32-22.33 201.53-23 199.3-23L199.3-23Q198.13-23 196.9-22.75 195.67-22.51 194.48-22.06 193.3-21.61 192.2-20.94 191.1-20.26 190.2-19.41L190.2-19.41 190.2 0 182.97 0Z" opacity="1" transform="matrix(1,0,0,1,0,0)" fill="#fe0039" class="undefined-text-0" data-fill-palette-color="primary" id="SvgjsPath1251" stroke-width="12" stroke="black" stroke-linejoin="round"></path></svg></g></svg></g></svg></g></svg></g></svg></g></svg></g></svg></g></mask><mask id="3a600bdd-bf9e-4237-81f0-d526379eaeaa"><rect width="395.52" height="247.2" fill="white"></rect><g transform="matrix(1,0,0,1,0,69.37331805566166)" id="clone"><svg viewBox="0 0 395.52 108.45336388867669" height="108.45336388867669" width="395.52"><g><svg viewBox="0 0 395.52 108.45336388867669" height="108.45336388867669" width="395.52"><g><svg viewBox="0 0 395.52 108.45336388867669" height="108.45336388867669" width="395.52"><g><svg viewBox="0 0 395.52 108.45336388867669" height="108.45336388867669" width="395.52"><g id="SvgjsG1257"><svg viewBox="0 0 395.52 108.45336388867669" height="108.45336388867669" width="395.52" id="SvgjsSvg1256"><g><svg viewBox="0 0 395.52 108.45336388867669" height="108.45336388867669" width="395.52"><g transform="matrix(1,0,0,1,0,0)"><svg width="395.52" viewBox="-8.430000066757202 -44.65999984741211 231.09999084472656 64.0999984741211" height="108.45336388867669" data-palette-color="#fe0039"><path d="M1.07 12.94L-1.93 6.32Q-0.24 5.3 0.96 4.17 2.17 3.05 2.95 1.7 3.74 0.34 4.1-1.33 4.47-3 4.47-5.13L4.47-5.13 4.47-38.16 12.21-38.16 12.21-6.52Q12.21-3.98 11.99-1.89 11.77 0.2 11.27 1.94 10.77 3.69 9.92 5.15 9.08 6.62 7.85 7.93 6.62 9.25 4.94 10.47 3.27 11.69 1.07 12.94L1.07 12.94ZM19.82-14.5L19.82-14.5Q19.82-17.43 21.02-20.1 22.21-22.78 24.46-24.83 26.71-26.88 29.97-28.1 33.23-29.32 37.38-29.32L37.38-29.32Q41.5-29.32 44.81-28.09 48.12-26.86 50.42-24.71 52.73-22.56 53.96-19.65 55.2-16.75 55.2-13.43L55.2-13.43Q55.2-13.01 55.19-12.54 55.17-12.06 55.12-11.67L55.12-11.67 27.88-11.67Q28.34-10.38 29.38-9.3 30.42-8.23 31.98-7.45 33.54-6.67 35.59-6.24 37.64-5.81 40.13-5.81L40.13-5.81Q42.62-5.81 45.09-6.34 47.56-6.86 49.8-7.67L49.8-7.67 52.24-2.15Q50.83-1.49 49.37-0.99 47.92-0.49 46.35-0.16 44.77 0.17 43.05 0.34 41.33 0.51 39.43 0.51L39.43 0.51Q34.57 0.51 30.91-0.66 27.24-1.83 24.78-3.86 22.31-5.88 21.07-8.62 19.82-11.35 19.82-14.5ZM27.88-17.31L47.53-17.31Q47.14-18.51 46.32-19.54 45.51-20.58 44.28-21.35 43.06-22.12 41.45-22.56 39.84-23 37.91-23L37.91-23Q35.86-23 34.18-22.53 32.49-22.07 31.22-21.29 29.95-20.51 29.11-19.48 28.27-18.46 27.88-17.31L27.88-17.31ZM61.59-14.5L61.59-14.5Q61.59-17.43 62.79-20.1 63.98-22.78 66.23-24.83 68.48-26.88 71.74-28.1 75-29.32 79.15-29.32L79.15-29.32Q83.27-29.32 86.58-28.09 89.89-26.86 92.19-24.71 94.5-22.56 95.73-19.65 96.97-16.75 96.97-13.43L96.97-13.43Q96.97-13.01 96.96-12.54 96.94-12.06 96.89-11.67L96.89-11.67 69.65-11.67Q70.11-10.38 71.15-9.3 72.19-8.23 73.75-7.45 75.31-6.67 77.36-6.24 79.41-5.81 81.9-5.81L81.9-5.81Q84.39-5.81 86.86-6.34 89.33-6.86 91.57-7.67L91.57-7.67 94.01-2.15Q92.6-1.49 91.14-0.99 89.69-0.49 88.12-0.16 86.54 0.17 84.82 0.34 83.1 0.51 81.2 0.51L81.2 0.51Q76.34 0.51 72.68-0.66 69.01-1.83 66.55-3.86 64.08-5.88 62.84-8.62 61.59-11.35 61.59-14.5ZM69.65-17.31L89.3-17.31Q88.91-18.51 88.09-19.54 87.28-20.58 86.05-21.35 84.83-22.12 83.22-22.56 81.61-23 79.68-23L79.68-23Q77.63-23 75.95-22.53 74.26-22.07 72.99-21.29 71.72-20.51 70.88-19.48 70.04-18.46 69.65-17.31L69.65-17.31ZM114.4 0L100.75-28.83 109.12-28.83 116.62-11.5 118.57-6.64 120.52-11.5 128.02-28.83 136.39-28.83 122.75 0 114.4 0ZM140.08-9.08L140.08-9.08Q140.08-11.16 140.98-12.87 141.88-14.58 143.69-15.81 145.5-17.04 148.2-17.71 150.89-18.38 154.48-18.38L154.48-18.38Q157.14-18.38 160.09-17.99 163.03-17.6 166.15-16.8L166.15-16.8Q166.03-18.16 165.32-19.32 164.61-20.48 163.36-21.33 162.1-22.17 160.33-22.63 158.56-23.1 156.31-23.1L156.31-23.1Q155.09-23.1 153.63-22.95 152.16-22.8 150.6-22.51 149.04-22.22 147.51-21.78 145.99-21.34 144.67-20.73L144.67-20.73 142.47-26.66Q144.11-27.25 145.97-27.73 147.84-28.22 149.79-28.58 151.75-28.93 153.7-29.13 155.65-29.32 157.49-29.32L157.49-29.32Q165.57-29.32 169.5-25.2 173.43-21.07 173.43-12.55L173.43-12.55 173.43 0 166.2 0 166.2-2.71Q165.08-2.05 163.75-1.46 162.42-0.88 160.85-0.44 159.29 0 157.5 0.26 155.7 0.51 153.7 0.51L153.7 0.51Q150.33 0.51 147.78-0.22 145.23-0.95 143.52-2.25 141.81-3.54 140.94-5.29 140.08-7.03 140.08-9.08ZM147.7-9.33L147.7-9.33Q147.7-8.62 148.06-7.97 148.43-7.32 149.23-6.82 150.04-6.32 151.3-6.02 152.55-5.71 154.34-5.71L154.34-5.71Q156.24-5.71 158.02-6.05 159.8-6.4 161.34-6.96 162.88-7.52 164.13-8.25 165.37-8.98 166.2-9.77L166.2-9.77 166.2-11.04Q164.54-11.5 162.92-11.82 161.29-12.13 159.82-12.32 158.34-12.5 157.03-12.57 155.73-12.65 154.75-12.65L154.75-12.65Q152.72-12.65 151.38-12.38 150.04-12.11 149.21-11.66 148.38-11.21 148.04-10.6 147.7-9.99 147.7-9.33ZM182.97 0L182.97-28.81 190.2-28.81 190.2-26.37Q193.08-28 195.7-28.66 198.33-29.32 200.84-29.32L200.84-29.32Q204.14-29.32 206.95-28.36 209.75-27.39 211.8-25.49 213.85-23.58 215.01-20.74 216.17-17.9 216.17-14.16L216.17-14.16 216.17 0 208.97 0 208.97-12.99Q208.97-15.36 208.3-17.22 207.63-19.09 206.37-20.37 205.11-21.66 203.32-22.33 201.53-23 199.3-23L199.3-23Q198.13-23 196.9-22.75 195.67-22.51 194.48-22.06 193.3-21.61 192.2-20.94 191.1-20.26 190.2-19.41L190.2-19.41 190.2 0 182.97 0Z" opacity="1" transform="matrix(1,0,0,1,0,0)" fill="#fe0039" class="undefined-text-0" data-fill-palette-color="primary" id="SvgjsPath1255" stroke-width="12" stroke="black" stroke-linejoin="round"></path></svg></g></svg></g></svg></g></svg></g></svg></g></svg></g></svg></g></mask><mask id="5a90cd49-8728-4224-8fc9-ba5c2f49243f"><rect width="395.52" height="247.2" fill="white"></rect><g transform="matrix(1,0,0,1,0,69.37331805566166)" id="clone"><svg viewBox="0 0 395.52 108.45336388867669" height="108.45336388867669" width="395.52"><g><svg viewBox="0 0 395.52 108.45336388867669" height="108.45336388867669" width="395.52"><g><svg viewBox="0 0 395.52 108.45336388867669" height="108.45336388867669" width="395.52"><g><svg viewBox="0 0 395.52 108.45336388867669" height="108.45336388867669" width="395.52"><g id="SvgjsG1261"><svg viewBox="0 0 395.52 108.45336388867669" height="108.45336388867669" width="395.52" id="SvgjsSvg1260"><g><svg viewBox="0 0 395.52 108.45336388867669" height="108.45336388867669" width="395.52"><g transform="matrix(1,0,0,1,0,0)"><svg width="395.52" viewBox="-8.430000066757202 -44.65999984741211 231.09999084472656 64.0999984741211" height="108.45336388867669" data-palette-color="#fe0039"><path d="M1.07 12.94L-1.93 6.32Q-0.24 5.3 0.96 4.17 2.17 3.05 2.95 1.7 3.74 0.34 4.1-1.33 4.47-3 4.47-5.13L4.47-5.13 4.47-38.16 12.21-38.16 12.21-6.52Q12.21-3.98 11.99-1.89 11.77 0.2 11.27 1.94 10.77 3.69 9.92 5.15 9.08 6.62 7.85 7.93 6.62 9.25 4.94 10.47 3.27 11.69 1.07 12.94L1.07 12.94ZM19.82-14.5L19.82-14.5Q19.82-17.43 21.02-20.1 22.21-22.78 24.46-24.83 26.71-26.88 29.97-28.1 33.23-29.32 37.38-29.32L37.38-29.32Q41.5-29.32 44.81-28.09 48.12-26.86 50.42-24.71 52.73-22.56 53.96-19.65 55.2-16.75 55.2-13.43L55.2-13.43Q55.2-13.01 55.19-12.54 55.17-12.06 55.12-11.67L55.12-11.67 27.88-11.67Q28.34-10.38 29.38-9.3 30.42-8.23 31.98-7.45 33.54-6.67 35.59-6.24 37.64-5.81 40.13-5.81L40.13-5.81Q42.62-5.81 45.09-6.34 47.56-6.86 49.8-7.67L49.8-7.67 52.24-2.15Q50.83-1.49 49.37-0.99 47.92-0.49 46.35-0.16 44.77 0.17 43.05 0.34 41.33 0.51 39.43 0.51L39.43 0.51Q34.57 0.51 30.91-0.66 27.24-1.83 24.78-3.86 22.31-5.88 21.07-8.62 19.82-11.35 19.82-14.5ZM27.88-17.31L47.53-17.31Q47.14-18.51 46.32-19.54 45.51-20.58 44.28-21.35 43.06-22.12 41.45-22.56 39.84-23 37.91-23L37.91-23Q35.86-23 34.18-22.53 32.49-22.07 31.22-21.29 29.95-20.51 29.11-19.48 28.27-18.46 27.88-17.31L27.88-17.31ZM61.59-14.5L61.59-14.5Q61.59-17.43 62.79-20.1 63.98-22.78 66.23-24.83 68.48-26.88 71.74-28.1 75-29.32 79.15-29.32L79.15-29.32Q83.27-29.32 86.58-28.09 89.89-26.86 92.19-24.71 94.5-22.56 95.73-19.65 96.97-16.75 96.97-13.43L96.97-13.43Q96.97-13.01 96.96-12.54 96.94-12.06 96.89-11.67L96.89-11.67 69.65-11.67Q70.11-10.38 71.15-9.3 72.19-8.23 73.75-7.45 75.31-6.67 77.36-6.24 79.41-5.81 81.9-5.81L81.9-5.81Q84.39-5.81 86.86-6.34 89.33-6.86 91.57-7.67L91.57-7.67 94.01-2.15Q92.6-1.49 91.14-0.99 89.69-0.49 88.12-0.16 86.54 0.17 84.82 0.34 83.1 0.51 81.2 0.51L81.2 0.51Q76.34 0.51 72.68-0.66 69.01-1.83 66.55-3.86 64.08-5.88 62.84-8.62 61.59-11.35 61.59-14.5ZM69.65-17.31L89.3-17.31Q88.91-18.51 88.09-19.54 87.28-20.58 86.05-21.35 84.83-22.12 83.22-22.56 81.61-23 79.68-23L79.68-23Q77.63-23 75.95-22.53 74.26-22.07 72.99-21.29 71.72-20.51 70.88-19.48 70.04-18.46 69.65-17.31L69.65-17.31ZM114.4 0L100.75-28.83 109.12-28.83 116.62-11.5 118.57-6.64 120.52-11.5 128.02-28.83 136.39-28.83 122.75 0 114.4 0ZM140.08-9.08L140.08-9.08Q140.08-11.16 140.98-12.87 141.88-14.58 143.69-15.81 145.5-17.04 148.2-17.71 150.89-18.38 154.48-18.38L154.48-18.38Q157.14-18.38 160.09-17.99 163.03-17.6 166.15-16.8L166.15-16.8Q166.03-18.16 165.32-19.32 164.61-20.48 163.36-21.33 162.1-22.17 160.33-22.63 158.56-23.1 156.31-23.1L156.31-23.1Q155.09-23.1 153.63-22.95 152.16-22.8 150.6-22.51 149.04-22.22 147.51-21.78 145.99-21.34 144.67-20.73L144.67-20.73 142.47-26.66Q144.11-27.25 145.97-27.73 147.84-28.22 149.79-28.58 151.75-28.93 153.7-29.13 155.65-29.32 157.49-29.32L157.49-29.32Q165.57-29.32 169.5-25.2 173.43-21.07 173.43-12.55L173.43-12.55 173.43 0 166.2 0 166.2-2.71Q165.08-2.05 163.75-1.46 162.42-0.88 160.85-0.44 159.29 0 157.5 0.26 155.7 0.51 153.7 0.51L153.7 0.51Q150.33 0.51 147.78-0.22 145.23-0.95 143.52-2.25 141.81-3.54 140.94-5.29 140.08-7.03 140.08-9.08ZM147.7-9.33L147.7-9.33Q147.7-8.62 148.06-7.97 148.43-7.32 149.23-6.82 150.04-6.32 151.3-6.02 152.55-5.71 154.34-5.71L154.34-5.71Q156.24-5.71 158.02-6.05 159.8-6.4 161.34-6.96 162.88-7.52 164.13-8.25 165.37-8.98 166.2-9.77L166.2-9.77 166.2-11.04Q164.54-11.5 162.92-11.82 161.29-12.13 159.82-12.32 158.34-12.5 157.03-12.57 155.73-12.65 154.75-12.65L154.75-12.65Q152.72-12.65 151.38-12.38 150.04-12.11 149.21-11.66 148.38-11.21 148.04-10.6 147.7-9.99 147.7-9.33ZM182.97 0L182.97-28.81 190.2-28.81 190.2-26.37Q193.08-28 195.7-28.66 198.33-29.32 200.84-29.32L200.84-29.32Q204.14-29.32 206.95-28.36 209.75-27.39 211.8-25.49 213.85-23.58 215.01-20.74 216.17-17.9 216.17-14.16L216.17-14.16 216.17 0 208.97 0 208.97-12.99Q208.97-15.36 208.3-17.22 207.63-19.09 206.37-20.37 205.11-21.66 203.32-22.33 201.53-23 199.3-23L199.3-23Q198.13-23 196.9-22.75 195.67-22.51 194.48-22.06 193.3-21.61 192.2-20.94 191.1-20.26 190.2-19.41L190.2-19.41 190.2 0 182.97 0Z" opacity="1" transform="matrix(1,0,0,1,0,0)" fill="#fe0039" class="undefined-text-0" data-fill-palette-color="primary" id="SvgjsPath1259" stroke-width="12" stroke="black" stroke-linejoin="round"></path></svg></g></svg></g></svg></g></svg></g></svg></g></svg></g></svg></g></mask><mask id="f6d5325a-3b1b-4ec0-a688-cc7fa1067989"><rect width="395.52" height="247.2" fill="white"></rect><g transform="matrix(1,0,0,1,0,69.37331805566166)" id="clone"><svg viewBox="0 0 395.52 108.45336388867669" height="108.45336388867669" width="395.52"><g><svg viewBox="0 0 395.52 108.45336388867669" height="108.45336388867669" width="395.52"><g><svg viewBox="0 0 395.52 108.45336388867669" height="108.45336388867669" width="395.52"><g><svg viewBox="0 0 395.52 108.45336388867669" height="108.45336388867669" width="395.52"><g id="SvgjsG1265"><svg viewBox="0 0 395.52 108.45336388867669" height="108.45336388867669" width="395.52" id="SvgjsSvg1264"><g><svg viewBox="0 0 395.52 108.45336388867669" height="108.45336388867669" width="395.52"><g transform="matrix(1,0,0,1,0,0)"><svg width="395.52" viewBox="-8.430000066757202 -44.65999984741211 231.09999084472656 64.0999984741211" height="108.45336388867669" data-palette-color="#fe0039"><path d="M1.07 12.94L-1.93 6.32Q-0.24 5.3 0.96 4.17 2.17 3.05 2.95 1.7 3.74 0.34 4.1-1.33 4.47-3 4.47-5.13L4.47-5.13 4.47-38.16 12.21-38.16 12.21-6.52Q12.21-3.98 11.99-1.89 11.77 0.2 11.27 1.94 10.77 3.69 9.92 5.15 9.08 6.62 7.85 7.93 6.62 9.25 4.94 10.47 3.27 11.69 1.07 12.94L1.07 12.94ZM19.82-14.5L19.82-14.5Q19.82-17.43 21.02-20.1 22.21-22.78 24.46-24.83 26.71-26.88 29.97-28.1 33.23-29.32 37.38-29.32L37.38-29.32Q41.5-29.32 44.81-28.09 48.12-26.86 50.42-24.71 52.73-22.56 53.96-19.65 55.2-16.75 55.2-13.43L55.2-13.43Q55.2-13.01 55.19-12.54 55.17-12.06 55.12-11.67L55.12-11.67 27.88-11.67Q28.34-10.38 29.38-9.3 30.42-8.23 31.98-7.45 33.54-6.67 35.59-6.24 37.64-5.81 40.13-5.81L40.13-5.81Q42.62-5.81 45.09-6.34 47.56-6.86 49.8-7.67L49.8-7.67 52.24-2.15Q50.83-1.49 49.37-0.99 47.92-0.49 46.35-0.16 44.77 0.17 43.05 0.34 41.33 0.51 39.43 0.51L39.43 0.51Q34.57 0.51 30.91-0.66 27.24-1.83 24.78-3.86 22.31-5.88 21.07-8.62 19.82-11.35 19.82-14.5ZM27.88-17.31L47.53-17.31Q47.14-18.51 46.32-19.54 45.51-20.58 44.28-21.35 43.06-22.12 41.45-22.56 39.84-23 37.91-23L37.91-23Q35.86-23 34.18-22.53 32.49-22.07 31.22-21.29 29.95-20.51 29.11-19.48 28.27-18.46 27.88-17.31L27.88-17.31ZM61.59-14.5L61.59-14.5Q61.59-17.43 62.79-20.1 63.98-22.78 66.23-24.83 68.48-26.88 71.74-28.1 75-29.32 79.15-29.32L79.15-29.32Q83.27-29.32 86.58-28.09 89.89-26.86 92.19-24.71 94.5-22.56 95.73-19.65 96.97-16.75 96.97-13.43L96.97-13.43Q96.97-13.01 96.96-12.54 96.94-12.06 96.89-11.67L96.89-11.67 69.65-11.67Q70.11-10.38 71.15-9.3 72.19-8.23 73.75-7.45 75.31-6.67 77.36-6.24 79.41-5.81 81.9-5.81L81.9-5.81Q84.39-5.81 86.86-6.34 89.33-6.86 91.57-7.67L91.57-7.67 94.01-2.15Q92.6-1.49 91.14-0.99 89.69-0.49 88.12-0.16 86.54 0.17 84.82 0.34 83.1 0.51 81.2 0.51L81.2 0.51Q76.34 0.51 72.68-0.66 69.01-1.83 66.55-3.86 64.08-5.88 62.84-8.62 61.59-11.35 61.59-14.5ZM69.65-17.31L89.3-17.31Q88.91-18.51 88.09-19.54 87.28-20.58 86.05-21.35 84.83-22.12 83.22-22.56 81.61-23 79.68-23L79.68-23Q77.63-23 75.95-22.53 74.26-22.07 72.99-21.29 71.72-20.51 70.88-19.48 70.04-18.46 69.65-17.31L69.65-17.31ZM114.4 0L100.75-28.83 109.12-28.83 116.62-11.5 118.57-6.64 120.52-11.5 128.02-28.83 136.39-28.83 122.75 0 114.4 0ZM140.08-9.08L140.08-9.08Q140.08-11.16 140.98-12.87 141.88-14.58 143.69-15.81 145.5-17.04 148.2-17.71 150.89-18.38 154.48-18.38L154.48-18.38Q157.14-18.38 160.09-17.99 163.03-17.6 166.15-16.8L166.15-16.8Q166.03-18.16 165.32-19.32 164.61-20.48 163.36-21.33 162.1-22.17 160.33-22.63 158.56-23.1 156.31-23.1L156.31-23.1Q155.09-23.1 153.63-22.95 152.16-22.8 150.6-22.51 149.04-22.22 147.51-21.78 145.99-21.34 144.67-20.73L144.67-20.73 142.47-26.66Q144.11-27.25 145.97-27.73 147.84-28.22 149.79-28.58 151.75-28.93 153.7-29.13 155.65-29.32 157.49-29.32L157.49-29.32Q165.57-29.32 169.5-25.2 173.43-21.07 173.43-12.55L173.43-12.55 173.43 0 166.2 0 166.2-2.71Q165.08-2.05 163.75-1.46 162.42-0.88 160.85-0.44 159.29 0 157.5 0.26 155.7 0.51 153.7 0.51L153.7 0.51Q150.33 0.51 147.78-0.22 145.23-0.95 143.52-2.25 141.81-3.54 140.94-5.29 140.08-7.03 140.08-9.08ZM147.7-9.33L147.7-9.33Q147.7-8.62 148.06-7.97 148.43-7.32 149.23-6.82 150.04-6.32 151.3-6.02 152.55-5.71 154.34-5.71L154.34-5.71Q156.24-5.71 158.02-6.05 159.8-6.4 161.34-6.96 162.88-7.52 164.13-8.25 165.37-8.98 166.2-9.77L166.2-9.77 166.2-11.04Q164.54-11.5 162.92-11.82 161.29-12.13 159.82-12.32 158.34-12.5 157.03-12.57 155.73-12.65 154.75-12.65L154.75-12.65Q152.72-12.65 151.38-12.38 150.04-12.11 149.21-11.66 148.38-11.21 148.04-10.6 147.7-9.99 147.7-9.33ZM182.97 0L182.97-28.81 190.2-28.81 190.2-26.37Q193.08-28 195.7-28.66 198.33-29.32 200.84-29.32L200.84-29.32Q204.14-29.32 206.95-28.36 209.75-27.39 211.8-25.49 213.85-23.58 215.01-20.74 216.17-17.9 216.17-14.16L216.17-14.16 216.17 0 208.97 0 208.97-12.99Q208.97-15.36 208.3-17.22 207.63-19.09 206.37-20.37 205.11-21.66 203.32-22.33 201.53-23 199.3-23L199.3-23Q198.13-23 196.9-22.75 195.67-22.51 194.48-22.06 193.3-21.61 192.2-20.94 191.1-20.26 190.2-19.41L190.2-19.41 190.2 0 182.97 0Z" opacity="1" transform="matrix(1,0,0,1,0,0)" fill="#fe0039" class="undefined-text-0" data-fill-palette-color="primary" id="SvgjsPath1263" stroke-width="12" stroke="black" stroke-linejoin="round"></path></svg></g></svg></g></svg></g></svg></g></svg></g></svg></g></svg></g></mask></defs></svg><rect width="395.52" height="247.2" fill="none" stroke="none" visibility="hidden"></rect></g></svg></g></svg>